<svg width="36" height="29" viewBox="0 0 36 29" fill="none" xmlns="http://www.w3.org/2000/svg">
<path d="M33.6003 21.0003V3.0003C33.5982 2.84181 33.5344 2.6904 33.4223 2.57833C33.3102 2.46625 33.1588 2.40237 33.0003 2.4003H3.0003C2.84181 2.40237 2.6904 2.46625 2.57833 2.57833C2.46625 2.6904 2.40237 2.84181 2.4003 3.0003V21.0003C2.40237 21.1588 2.46625 21.3102 2.57833 21.4223C2.6904 21.5343 2.84181 21.5982 3.0003 21.6003H33.0003C33.1588 21.5982 33.3102 21.5343 33.4223 21.4223C33.5344 21.3102 33.5982 21.1588 33.6003 21.0003ZM36.0003 3.0003V21.0003C35.9982 21.7953 35.6814 22.5571 35.1193 23.1193C34.5571 23.6814 33.7953 23.9982 33.0003 24.0003H19.2003V26.4003H25.8003C25.8799 26.3975 25.9592 26.411 26.0333 26.4401C26.1075 26.4692 26.1748 26.5131 26.2313 26.5693C26.2871 26.626 26.3309 26.6934 26.3599 26.7675C26.389 26.8416 26.4027 26.9208 26.4003 27.0003V28.2003C26.4031 28.2799 26.3896 28.3592 26.3605 28.4333C26.3314 28.5075 26.2875 28.5748 26.2313 28.6313C26.1746 28.6871 26.1072 28.7309 26.0331 28.7599C25.959 28.789 25.8798 28.8027 25.8003 28.8003H10.2003C10.1207 28.8031 10.0414 28.7896 9.96727 28.7605C9.89314 28.7314 9.82576 28.6875 9.7693 28.6313C9.71348 28.5746 9.66973 28.5072 9.64068 28.4331C9.61163 28.359 9.5979 28.2798 9.6003 28.2003V27.0003C9.59749 26.9207 9.61103 26.8414 9.6401 26.7673C9.66917 26.6931 9.71314 26.6258 9.7693 26.5693C9.826 26.5135 9.89342 26.4697 9.9675 26.4407C10.0416 26.4116 10.1208 26.3979 10.2003 26.4003H16.8003V24.0003H3.0003C2.60565 24.006 2.21402 23.9307 1.84957 23.7792C1.48512 23.6277 1.15559 23.4031 0.8813 23.1193C0.597492 22.845 0.372898 22.5155 0.221375 22.151C0.0698514 21.7866 -0.00538759 21.395 0.000299998 21.0003V3.0003C-0.00538759 2.60565 0.0698514 2.21402 0.221375 1.84957C0.372898 1.48512 0.597492 1.15559 0.8813 0.8813C1.15559 0.597492 1.48512 0.372898 1.84957 0.221375C2.21402 0.0698514 2.60565 -0.00538759 3.0003 0.000299998H33.0003C33.395 -0.00538759 33.7866 0.0698514 34.151 0.221375C34.5155 0.372898 34.845 0.597492 35.1193 0.8813C35.4031 1.15559 35.6277 1.48512 35.7792 1.84957C35.9308 2.21402 36.006 2.60565 36.0003 3.0003Z" fill="#A0A1A7"/>
</svg>
