<svg width="29" height="29" viewBox="0 0 29 29" fill="none" xmlns="http://www.w3.org/2000/svg">
<path d="M23.2386 -0.000361627C23.9443 -0.0109005 24.6446 0.123235 25.2964 0.393772C25.9483 0.664309 26.5378 1.06551 27.0286 1.57264C27.5358 2.06332 27.937 2.65282 28.2074 3.3047C28.4778 3.95659 28.6116 4.65699 28.6006 5.36264V23.2376C28.5982 24.659 28.0325 26.0215 27.0275 27.0265C26.0224 28.0316 24.66 28.5973 23.2386 28.5996H19.7386V17.5206H23.4436L24.0006 13.1996H19.7376V10.4446C19.6962 9.88813 19.8512 9.33471 20.1756 8.88064C20.4062 8.67884 20.6769 8.5281 20.9699 8.4383C21.2629 8.34851 21.5715 8.3217 21.8756 8.35964L24.1466 8.34164V4.48664C23.0469 4.35718 21.9398 4.30106 20.8326 4.31864C20.0921 4.28291 19.352 4.3964 18.6563 4.65236C17.9605 4.90832 17.3234 5.30154 16.7826 5.80864C16.2556 6.36918 15.8492 7.03177 15.5883 7.75551C15.3273 8.47926 15.2175 9.2488 15.2656 10.0166V13.1996H11.5446V17.5196H15.2686V28.5996H5.3636C4.65793 28.6102 3.95759 28.476 3.30575 28.2055C2.65392 27.935 2.06442 27.5338 1.5736 27.0266C1.06631 26.5362 0.66499 25.9469 0.394436 25.2952C0.123882 24.6434 -0.0101575 23.9432 0.000599817 23.2376V5.36264C-0.00993902 4.65697 0.124196 3.95662 0.394733 3.30479C0.66527 2.65296 1.06647 2.06345 1.5736 1.57264C2.0642 1.06523 2.65366 0.663833 3.30555 0.393274C3.95743 0.122716 4.65788 -0.0112563 5.3636 -0.000361627H23.2386Z" fill="white"/>
</svg>
