<svg width="84" height="69" viewBox="0 0 84 69" fill="none" xmlns="http://www.w3.org/2000/svg">
<path d="M83.9757 49.7034C83.9768 50.4875 83.7584 51.0106 83.3209 51.5339C82.446 52.5806 81.1315 52.5823 80.2538 51.538L42.2932 6.36969L4.45231 51.6383C3.57737 52.685 2.2629 52.6867 1.38519 51.6424C0.507493 50.598 0.505416 49.0298 1.38035 47.9831L40.7524 0.882761C41.6273 -0.163916 42.9418 -0.165656 43.8195 0.8787L83.3161 47.8746C83.7549 48.3968 83.9747 48.9193 83.9757 49.7034ZM83.3368 63.5573L43.8402 16.5614C42.9625 15.5171 41.6481 15.5188 40.7731 16.5655L1.40111 63.6658C0.526178 64.7125 0.528254 66.2807 1.40596 67.3251C2.28366 68.3695 3.59813 68.3677 4.47307 67.321L42.314 22.0524L80.2746 67.2207C81.1523 68.265 82.4667 68.2633 83.3417 67.2166C83.7791 66.6933 83.9972 65.9089 83.9965 65.3861C83.9958 64.8634 83.7757 64.0795 83.3368 63.5573Z" fill="#88898C"/>
</svg>
