<svg width="22" height="27" viewBox="0 0 22 27" fill="none" xmlns="http://www.w3.org/2000/svg">
<path d="M9.2507 25.1129C9.21193 24.8179 9.14666 24.5271 9.0557 24.2439C8.9257 23.7772 8.7707 23.2439 8.5907 22.6439C8.4107 22.0439 8.3107 21.6992 8.2907 21.6099C8.2807 21.5699 8.2557 21.4365 8.2157 21.2099C8.18596 21.027 8.14319 20.8466 8.0877 20.6699C8.0502 20.5467 7.98127 20.4353 7.8877 20.3469C7.66724 20.1851 7.39486 20.1103 7.1227 20.1369C6.77184 20.1458 6.42169 20.1731 6.0737 20.2189C5.72074 20.2651 5.36557 20.2924 5.0097 20.3009C4.76457 20.3244 4.51852 20.2664 4.3097 20.1359C4.23867 20.0713 4.18239 19.9921 4.1447 19.9039C4.09805 19.8075 4.06023 19.7071 4.0317 19.6039C4.00637 19.5085 3.97304 19.3885 3.9317 19.2439C3.89037 19.0992 3.86537 19.0065 3.8567 18.9659C3.11748 16.4708 3.11748 13.8149 3.8567 11.3199C3.8667 11.2799 3.8917 11.1872 3.9317 11.0419C3.9717 10.8965 4.00504 10.7765 4.0317 10.6819C4.06037 10.5787 4.09819 10.4783 4.1447 10.3819C4.17936 10.2939 4.23257 10.2144 4.3007 10.1489C4.50952 10.0183 4.75557 9.96033 5.0007 9.98385C5.35657 9.99228 5.71174 10.0196 6.0647 10.0659C6.41269 10.1116 6.76284 10.1389 7.1137 10.1479C7.38584 10.1742 7.65815 10.0994 7.8787 9.93785C7.97267 9.85009 8.04168 9.73898 8.0787 9.61585C8.13372 9.439 8.17648 9.25858 8.2067 9.07585C8.2467 8.85118 8.2717 8.71785 8.2817 8.67585C8.3017 8.58585 8.4017 8.24118 8.5817 7.64185C8.7617 7.04252 8.9167 6.50918 9.0467 6.04185C9.13756 5.7586 9.20283 5.46777 9.2417 5.17285C9.2417 4.95285 9.02437 4.69052 8.5897 4.38585C8.24312 4.12795 7.86591 3.91399 7.4667 3.74885C7.25147 3.66598 7.02231 3.62524 6.7917 3.62885C6.2926 3.65642 5.79899 3.74714 5.3227 3.89885C4.81746 4.04154 4.33154 4.24538 3.8757 4.50585C3.45841 4.76139 3.09661 5.09803 2.8117 5.49585C2.55699 5.82862 2.3264 6.17918 2.1217 6.54485C1.97437 6.81952 1.74737 7.29152 1.4407 7.96085C1.3807 8.08085 1.3357 8.17585 1.3057 8.24585C0.827968 9.27722 0.485144 10.3658 0.285704 11.4849C0.0861163 12.6934 -0.00923454 13.9169 0.000703658 15.1419C-0.00922772 16.3671 0.0861229 17.5909 0.285704 18.7999C0.483407 19.9187 0.824553 21.0073 1.3007 22.0389C1.65712 22.8719 2.07286 23.6783 2.5447 24.4519C3.19497 25.3743 4.1426 26.0451 5.2287 26.3519L5.3187 26.3819C5.79499 26.5336 6.2886 26.6243 6.7877 26.6519C7.01831 26.6555 7.24747 26.6147 7.4627 26.5319C7.86658 26.3679 8.24878 26.155 8.6007 25.8979C9.0347 25.5932 9.25137 25.3315 9.2507 25.1129ZM11.6347 11.4249C11.4441 11.4237 11.2582 11.3662 11.1002 11.2595C10.9423 11.1529 10.8195 11.0018 10.7473 10.8254C10.6751 10.6491 10.6568 10.4553 10.6946 10.2685C10.7324 10.0817 10.8246 9.91028 10.9597 9.77585C11.1393 9.60076 11.2811 9.39073 11.3764 9.15872C11.4717 8.9267 11.5184 8.67762 11.5137 8.42685C11.5157 8.17422 11.4678 7.92368 11.3727 7.68961C11.2776 7.45554 11.1373 7.24255 10.9597 7.06285C10.8689 6.97478 10.7965 6.86952 10.7467 6.7532C10.697 6.63688 10.6708 6.51182 10.6699 6.38531C10.6689 6.2588 10.6931 6.13336 10.741 6.01628C10.789 5.89921 10.8598 5.79285 10.9492 5.70339C11.0387 5.61393 11.1451 5.54316 11.2621 5.49519C11.3792 5.44723 11.5047 5.42303 11.6312 5.424C11.7577 5.42497 11.8827 5.4511 11.9991 5.50086C12.1154 5.55062 12.2206 5.62302 12.3087 5.71385C12.6715 6.06533 12.9584 6.48736 13.1519 6.95395C13.3454 7.42053 13.4413 7.9218 13.4337 8.42685C13.4413 8.93191 13.3454 9.43317 13.1519 9.89976C12.9584 10.3663 12.6715 10.7884 12.3087 11.1399C12.1284 11.3176 11.8869 11.4196 11.6337 11.4249H11.6347ZM14.3477 14.1379C14.2214 14.1409 14.0959 14.1171 13.9796 14.0679C13.8632 14.0188 13.7586 13.9455 13.6727 13.8529C13.5826 13.7652 13.5109 13.6603 13.462 13.5444C13.4131 13.4286 13.3879 13.3041 13.3879 13.1784C13.3879 13.0526 13.4131 12.9281 13.462 12.8123C13.5109 12.6964 13.5826 12.5915 13.6727 12.5039C14.2133 11.9726 14.6407 11.3374 14.9292 10.6366C15.2178 9.93571 15.3615 9.18371 15.3517 8.42585C15.3615 7.66799 15.2178 6.91599 14.9292 6.21515C14.6407 5.5143 14.2133 4.87912 13.6727 4.34785C13.5826 4.26016 13.5109 4.15529 13.462 4.03944C13.4131 3.92359 13.3879 3.79911 13.3879 3.67335C13.3879 3.54759 13.4131 3.42311 13.462 3.30726C13.5109 3.19141 13.5826 3.08654 13.6727 2.99885C13.7604 2.90871 13.8653 2.83706 13.9811 2.78813C14.097 2.73921 14.2214 2.714 14.3472 2.714C14.473 2.714 14.5974 2.73921 14.7133 2.78813C14.8291 2.83706 14.934 2.90871 15.0217 2.99885C15.7472 3.702 16.321 4.54626 16.7078 5.47962C17.0946 6.41297 17.2862 7.41565 17.2707 8.42585C17.2862 9.43606 17.0946 10.4387 16.7078 11.3721C16.321 12.3054 15.7472 13.1497 15.0217 13.8529C14.9358 13.9455 14.8312 14.0188 14.7149 14.0679C14.5985 14.1171 14.473 14.1409 14.3467 14.1379H14.3477ZM17.0607 16.8509C16.9344 16.8539 16.8089 16.8301 16.6926 16.7809C16.5762 16.7318 16.4716 16.6585 16.3857 16.5659C16.2956 16.4782 16.2239 16.3733 16.175 16.2574C16.1261 16.1416 16.1009 16.0171 16.1009 15.8914C16.1009 15.7656 16.1261 15.6411 16.175 15.5253C16.2239 15.4094 16.2956 15.3045 16.3857 15.2169C17.2748 14.3228 17.9801 13.2632 18.4617 12.0979C19.4307 9.74505 19.4307 7.10465 18.4617 4.75185C17.9805 3.58719 17.2755 2.52821 16.3867 1.63485C16.2956 1.54779 16.2233 1.44297 16.1743 1.32688C16.1253 1.21078 16.1006 1.08587 16.1017 0.959852C16.1006 0.833836 16.1253 0.708922 16.1743 0.592825C16.2233 0.476729 16.2956 0.371913 16.3867 0.284852C16.4744 0.194709 16.5793 0.123059 16.6951 0.074133C16.811 0.0252075 16.9354 0 17.0612 0C17.187 0 17.3114 0.0252075 17.4273 0.074133C17.5431 0.123059 17.648 0.194709 17.7357 0.284852C18.808 1.35204 19.6589 2.62056 20.2395 4.01756C20.8201 5.41456 21.119 6.9125 21.119 8.42535C21.119 9.9382 20.8201 11.4361 20.2395 12.8331C19.6589 14.2301 18.808 15.4987 17.7357 16.5659C17.6498 16.6585 17.5452 16.7318 17.4289 16.7809C17.3125 16.8301 17.187 16.8539 17.0607 16.8509V16.8509Z" fill="white"/>
</svg>
