<svg width="29" height="29" viewBox="0 0 29 29" fill="none" xmlns="http://www.w3.org/2000/svg">
<path d="M19.0675 14.3C19.0672 13.0358 18.5649 11.8234 17.671 10.9295C16.777 10.0356 15.5647 9.53327 14.3005 9.533C13.0363 9.53327 11.8239 10.0356 10.93 10.9295C10.0361 11.8234 9.53375 13.0358 9.53349 14.3C9.53375 15.5642 10.0361 16.7766 10.93 17.6705C11.8239 18.5644 13.0363 19.0667 14.3005 19.067C15.5647 19.0667 16.777 18.5644 17.671 17.6705C18.5649 16.7766 19.0672 15.5642 19.0675 14.3ZM21.6365 14.3C21.6399 15.2643 21.4525 16.2198 21.0851 17.1114C20.7176 18.003 20.1774 18.8131 19.4955 19.495C18.8136 20.1769 18.0035 20.7171 17.1119 21.0846C16.2203 21.452 15.2648 21.6394 14.3005 21.636C13.3361 21.6394 12.3807 21.452 11.4891 21.0846C10.5975 20.7171 9.78739 20.1769 9.10549 19.495C8.4236 18.8131 7.88336 18.003 7.51591 17.1114C7.14846 16.2198 6.96105 15.2643 6.96449 14.3C6.96105 13.3357 7.14846 12.3802 7.51591 11.4886C7.88336 10.597 8.4236 9.7869 9.10549 9.105C9.78739 8.42311 10.5975 7.88287 11.4891 7.51542C12.3807 7.14797 13.3361 6.96056 14.3005 6.964C15.2648 6.96056 16.2203 7.14797 17.1119 7.51542C18.0035 7.88287 18.8136 8.42311 19.4955 9.105C20.1774 9.7869 20.7176 10.597 21.0851 11.4886C21.4525 12.3802 21.6399 13.3357 21.6365 14.3V14.3ZM23.6475 6.666C23.6479 6.94789 23.5788 7.22552 23.4462 7.47428C23.3136 7.72304 23.1216 7.93523 22.8874 8.09204C22.6531 8.24885 22.3838 8.34543 22.1033 8.37321C21.8228 8.40099 21.5398 8.35911 21.2793 8.25129C21.0188 8.14348 20.789 7.97305 20.6102 7.75513C20.4314 7.53721 20.3091 7.27853 20.2543 7.00204C20.1994 6.72554 20.2136 6.43978 20.2956 6.17009C20.3776 5.9004 20.525 5.65512 20.7245 5.456C20.964 5.21695 21.269 5.05421 21.601 4.98832C21.933 4.92243 22.277 4.95635 22.5897 5.0858C22.9024 5.21524 23.1697 5.43441 23.358 5.71564C23.5462 5.99687 23.647 6.32757 23.6475 6.666V6.666ZM14.3005 2.569L12.8765 2.559C12.0138 2.55233 11.3588 2.55233 10.9115 2.559C10.4642 2.56567 9.86415 2.58433 9.11149 2.615C8.47113 2.63491 7.83277 2.69671 7.20049 2.8C6.74704 2.87377 6.30145 2.9896 5.86949 3.146C5.2549 3.3906 4.69659 3.75783 4.2286 4.2253C3.76061 4.69278 3.39276 5.25069 3.14749 5.865C2.99091 6.29835 2.87475 6.74525 2.80049 7.2C2.69656 7.83457 2.63443 8.47528 2.61449 9.118C2.58382 9.86933 2.56516 10.4693 2.55849 10.918C2.55182 11.3667 2.55182 12.0217 2.55849 12.883C2.56516 13.7457 2.56849 14.2203 2.56849 14.307C2.56849 14.3937 2.56516 14.8683 2.55849 15.731C2.55182 16.5937 2.55182 17.2487 2.55849 17.696C2.56516 18.1433 2.58382 18.7433 2.61449 19.496C2.63504 20.134 2.69717 20.7701 2.80049 21.4C2.87415 21.853 2.98964 22.2983 3.14549 22.73C3.39043 23.344 3.75781 23.9018 4.22527 24.3692C4.69272 24.8367 5.25046 25.2041 5.86449 25.449C6.29803 25.607 6.74527 25.7245 7.20049 25.8C7.83506 25.9039 8.47577 25.9661 9.11849 25.986C9.86982 26.0167 10.4698 26.0353 10.9185 26.042C11.3672 26.0487 12.0222 26.0487 12.8835 26.042L14.3075 26.032L15.7315 26.042C16.5942 26.0487 17.2492 26.0487 17.6965 26.042C18.1438 26.0353 18.7438 26.0167 19.4965 25.986C20.1345 25.9655 20.7705 25.9033 21.4005 25.8C21.8538 25.7261 22.2994 25.6107 22.7315 25.455C23.3455 25.2101 23.9033 24.8427 24.3707 24.3752C24.8382 23.9078 25.2056 23.35 25.4505 22.736C25.6082 22.3024 25.7253 21.8552 25.8005 21.4C25.9044 20.7654 25.9666 20.1247 25.9865 19.482C26.0172 18.7307 26.0358 18.1307 26.0425 17.682C26.0492 17.2333 26.0492 16.5783 26.0425 15.717C26.0358 14.8543 26.0325 14.3797 26.0325 14.293C26.0325 14.2063 26.0358 13.7317 26.0425 12.869C26.0492 12.0063 26.0492 11.3513 26.0425 10.904C26.0358 10.4567 26.0172 9.85667 25.9865 9.104C25.9659 8.46596 25.9038 7.82995 25.8005 7.2C25.7271 6.74681 25.6112 6.30152 25.4545 5.87C25.2096 5.25597 24.8422 4.69824 24.3747 4.23078C23.9073 3.76333 23.3495 3.39594 22.7355 3.151C22.3023 2.99306 21.8554 2.87556 21.4005 2.8C20.7659 2.69607 20.1252 2.63394 19.4825 2.614C18.7312 2.58333 18.1312 2.56467 17.6825 2.558C17.2338 2.55133 16.5788 2.55133 15.7175 2.558L14.3005 2.57V2.569ZM28.6005 14.3C28.6005 17.1427 28.5695 19.1093 28.5075 20.2C28.5287 22.4208 27.703 24.5663 26.1985 26.2C24.5648 27.7045 22.4193 28.5302 20.1985 28.509C19.1058 28.571 17.1392 28.602 14.2985 28.602C11.4578 28.602 9.49115 28.571 8.39849 28.509C6.17766 28.5302 4.03217 27.7045 2.39849 26.2C0.893959 24.5663 0.0683041 22.4208 0.0894883 20.2C0.030155 19.1093 0.000488281 17.1427 0.000488281 14.3C0.000488281 11.4573 0.0314883 9.49067 0.0934883 8.4C0.07176 6.17944 0.896687 4.03399 2.40049 2.4C4.03448 0.896198 6.17993 0.0712717 8.40049 0.093C9.49115 0.031 11.4578 0 14.3005 0C17.1432 0 19.1098 0.031 20.2005 0.093C22.4213 0.0718158 24.5668 0.897471 26.2005 2.402C27.705 4.03568 28.5307 6.18117 28.5095 8.402C28.5702 9.49133 28.6005 11.4573 28.6005 14.3Z" fill="white"/>
</svg>
