<svg width="21" height="17" viewBox="0 0 21 17" fill="none" xmlns="http://www.w3.org/2000/svg">
<path d="M18.9322 14.2002V5.46118C18.6913 5.73235 18.4287 5.98351 18.1472 6.21218C16.1158 7.77485 14.5002 9.05685 13.3002 10.0582C12.9128 10.3842 12.5982 10.6382 12.3562 10.8202C12.049 11.0391 11.7191 11.2242 11.3722 11.3722C11.0073 11.5467 10.6095 11.6418 10.2052 11.6512H10.1822C9.77815 11.6418 9.38072 11.5467 9.01618 11.3722C8.66933 11.224 8.33943 11.0389 8.03218 10.8202C7.78951 10.6382 7.47485 10.3842 7.08818 10.0582C5.88818 9.05818 4.27251 7.77618 2.24118 6.21218C1.95961 5.98351 1.69709 5.73235 1.45618 5.46118V14.2002C1.45747 14.2963 1.49624 14.3882 1.56422 14.4561C1.63221 14.5241 1.72404 14.5629 1.82018 14.5642H18.5682C18.6643 14.5629 18.7562 14.5241 18.8241 14.4561C18.8921 14.3882 18.9309 14.2963 18.9322 14.2002V14.2002ZM18.9322 2.24218V1.96218L18.9262 1.81418L18.8922 1.67218L18.8302 1.57218L18.7302 1.48618L18.5712 1.45818H1.82018C1.72404 1.45947 1.63221 1.49824 1.56422 1.56622C1.49624 1.63421 1.45747 1.72604 1.45618 1.82218C1.4586 2.45458 1.6116 3.07731 1.90253 3.63882C2.19346 4.20033 2.61395 4.68448 3.12918 5.05118C4.59585 6.20451 6.11685 7.40685 7.69218 8.65818L8.09218 8.99418C8.31218 9.18018 8.48651 9.32218 8.61518 9.42018C8.74385 9.51818 8.91251 9.63751 9.12118 9.77818C9.30074 9.90335 9.49358 10.0083 9.69618 10.0912C9.85165 10.1543 10.0174 10.1882 10.1852 10.1912H10.2082C10.376 10.1886 10.5418 10.1547 10.6972 10.0912C10.8995 10.0077 11.0923 9.90281 11.2722 9.77818C11.4808 9.63818 11.6495 9.51885 11.7782 9.42018C11.9068 9.32151 12.0812 9.17951 12.3012 8.99418L12.7012 8.65818C14.2792 7.40685 15.8002 6.20451 17.2642 5.05118C17.7118 4.6783 18.0955 4.23479 18.4002 3.73818C18.7158 3.29873 18.8997 2.77839 18.9302 2.23818L18.9322 2.24218ZM20.3882 1.82118V14.2002C20.3869 14.6825 20.1947 15.1446 19.8537 15.4857C19.5126 15.8267 19.0505 16.0189 18.5682 16.0202H1.82018C1.58064 16.0236 1.34295 15.9779 1.12176 15.8859C0.900579 15.7939 0.700603 15.6575 0.534179 15.4852C0.362169 15.3188 0.226052 15.1189 0.134213 14.8979C0.0423746 14.6769 -0.00324034 14.4395 0.000178946 14.2002V1.82018C-0.00311111 1.58081 0.0426609 1.34331 0.134673 1.1223C0.226686 0.901302 0.362988 0.701488 0.535179 0.535179C0.701487 0.362989 0.901301 0.226686 1.1223 0.134674C1.3433 0.0426614 1.58081 -0.00311064 1.82018 0.000179418H18.5682C18.8077 -0.0032478 19.0454 0.0424576 19.2666 0.134474C19.4878 0.226491 19.6878 0.362865 19.8542 0.535179C20.0265 0.701604 20.1629 0.90158 20.2549 1.12276C20.3469 1.34395 20.3926 1.58164 20.3892 1.82118H20.3882Z" fill="white"/>
</svg>
