<svg width="29" height="29" viewBox="0 0 29 29" fill="none" xmlns="http://www.w3.org/2000/svg">
<path d="M4.4136 23.9446H8.7136V11.0226H4.4136V23.9446ZM8.9946 7.03864C8.99706 6.74039 8.93884 6.44475 8.82349 6.1697C8.70814 5.89465 8.53806 5.64592 8.3236 5.43864C8.0921 5.22231 7.81975 5.05437 7.52252 4.94464C7.22528 4.83492 6.90913 4.78562 6.5926 4.79964C5.94579 4.77274 5.31411 4.99993 4.8326 5.43264C4.61135 5.63508 4.43622 5.88273 4.31907 6.15878C4.20192 6.43484 4.14549 6.73286 4.1536 7.03264C4.14688 7.32939 4.20221 7.62428 4.31603 7.89842C4.42985 8.17256 4.59967 8.41991 4.8146 8.62464C5.04423 8.84119 5.31491 9.00956 5.61066 9.11982C5.90641 9.23009 6.22125 9.28001 6.5366 9.26664H6.5546C6.87688 9.28218 7.19906 9.2339 7.50264 9.12459C7.80621 9.01527 8.08521 8.84707 8.3236 8.62964C8.54109 8.42637 8.71327 8.17952 8.82889 7.9052C8.94451 7.63088 9.00098 7.33526 8.9946 7.03764V7.03864ZM19.8876 23.9446H24.1876V16.5346C24.301 14.9696 23.8152 13.4199 22.8286 12.1996C22.3707 11.7106 21.8126 11.326 21.1926 11.0721C20.5725 10.8183 19.905 10.7011 19.2356 10.7286C18.4511 10.7037 17.6747 10.8925 16.9893 11.275C16.3039 11.6574 15.7354 12.219 15.3446 12.8996H15.3816V11.0196H11.0816C11.1189 11.839 11.1189 16.1463 11.0816 23.9416H15.3816V16.7206C15.3649 16.3681 15.4089 16.0153 15.5116 15.6776C15.6964 15.2455 15.9841 14.8651 16.3496 14.5696C16.7401 14.2587 17.2287 14.097 17.7276 14.1136C19.1676 14.1136 19.8876 15.0883 19.8876 17.0376V23.9456V23.9446ZM28.6006 5.36264V23.2376C28.5982 24.659 28.0325 26.0215 27.0275 27.0265C26.0224 28.0316 24.66 28.5973 23.2386 28.5996H5.3636C4.65793 28.6102 3.95759 28.476 3.30575 28.2055C2.65392 27.935 2.06442 27.5338 1.5736 27.0266C1.06631 26.5362 0.66499 25.9469 0.394436 25.2952C0.123882 24.6434 -0.0101575 23.9432 0.000599817 23.2376V5.36264C-0.00993902 4.65697 0.124196 3.95662 0.394733 3.30479C0.66527 2.65296 1.06647 2.06345 1.5736 1.57264C2.0642 1.06523 2.65366 0.663833 3.30555 0.393274C3.95743 0.122716 4.65788 -0.0112563 5.3636 -0.000361627H23.2386C23.9443 -0.0109005 24.6446 0.123235 25.2964 0.393772C25.9483 0.664309 26.5378 1.06551 27.0286 1.57264C27.5358 2.06332 27.937 2.65282 28.2074 3.3047C28.4778 3.95659 28.6116 4.65699 28.6006 5.36264V5.36264Z" fill="white"/>
</svg>
