<svg width="29" height="29" viewBox="0 0 29 29" fill="none" xmlns="http://www.w3.org/2000/svg">
<path d="M17.2316 22.0311V19.0871C17.2316 18.4618 17.0503 18.1491 16.6876 18.1491C16.5697 18.1551 16.4542 18.1847 16.3481 18.2362C16.2419 18.2878 16.1472 18.3602 16.0696 18.4491V22.6491C16.1472 22.738 16.2419 22.8104 16.3481 22.862C16.4542 22.9135 16.5697 22.9432 16.6876 22.9491C17.0503 22.9491 17.2316 22.6431 17.2316 22.0311V22.0311ZM20.6816 19.7441H21.9196V19.1061C21.9196 18.4688 21.7136 18.1501 21.3016 18.1501C20.8896 18.1501 20.6836 18.4688 20.6836 19.1061V19.7441H20.6816ZM9.97559 14.7561V16.0691H8.47559V24.0001H7.08859V16.0691H5.62659V14.7561H9.97659H9.97559ZM13.7446 17.1181V24.0001H12.4886V23.2501C12.3255 23.4847 12.1138 23.6815 11.8679 23.8271C11.622 23.9728 11.3477 24.0638 11.0636 24.0941C10.8917 24.1128 10.7186 24.0705 10.5747 23.9745C10.4309 23.8786 10.3253 23.735 10.2766 23.5691C10.1866 23.2394 10.1484 22.8976 10.1636 22.5561V17.1181H11.4006V22.1801C11.3928 22.3427 11.3988 22.5056 11.4186 22.6671C11.4306 22.8551 11.5246 22.9491 11.7006 22.9491C11.9506 22.9491 12.2129 22.7551 12.4876 22.3671V17.1171H13.7436L13.7446 17.1181ZM18.4696 19.2001V21.9381C18.4906 22.3983 18.4465 22.8592 18.3386 23.3071C18.2969 23.5367 18.1729 23.7432 17.99 23.888C17.8071 24.0329 17.5776 24.1061 17.3446 24.0941C17.0877 24.0711 16.8393 23.9899 16.6184 23.8566C16.3975 23.7234 16.2098 23.5416 16.0696 23.3251V24.0001H14.8136V14.7561H16.0696V17.7741C16.2101 17.5595 16.3983 17.3801 16.6194 17.25C16.8405 17.12 17.0887 17.0426 17.3446 17.0241C17.5776 17.0121 17.8071 17.0853 17.99 17.2302C18.1729 17.375 18.2969 17.5815 18.3386 17.8111C18.447 18.265 18.4911 18.7319 18.4696 19.1981V19.2001ZM23.1756 21.6181V21.7871C23.1803 22.0563 23.1676 22.3255 23.1376 22.5931C23.1026 22.8615 23.0061 23.1182 22.8556 23.3431C22.6923 23.5877 22.4681 23.7855 22.2051 23.917C21.942 24.0485 21.6492 24.1092 21.3556 24.0931C21.0637 24.1064 20.773 24.0484 20.5085 23.9242C20.244 23.8 20.0137 23.6132 19.8376 23.3801C19.5361 22.8989 19.3979 22.3332 19.4436 21.7671V19.3501C19.3991 18.7866 19.5301 18.2232 19.8186 17.7371C19.9919 17.5054 20.2191 17.3194 20.4804 17.1952C20.7418 17.0709 21.0295 17.0122 21.3186 17.0241C21.6027 17.0097 21.8858 17.0676 22.1415 17.1923C22.3971 17.3169 22.617 17.5044 22.7806 17.7371C23.0755 18.2211 23.2131 18.7846 23.1746 19.3501V20.7751H20.6826V21.9931C20.6826 22.6304 20.8953 22.9491 21.3206 22.9491C21.4587 22.9549 21.5938 22.9077 21.6983 22.8172C21.8028 22.7267 21.8687 22.5996 21.8826 22.4621C21.8826 22.4501 21.8859 22.4064 21.8926 22.3311C21.8993 22.2558 21.9026 22.1524 21.9026 22.0211V21.6211H23.1776L23.1756 21.6181ZM14.7186 6.1691V9.0941C14.7186 9.73144 14.5186 10.0501 14.1186 10.0501C13.7186 10.0501 13.5186 9.73144 13.5186 9.0941V6.1691C13.5186 5.5191 13.7186 5.1941 14.1186 5.1941C14.5186 5.1941 14.7186 5.5191 14.7186 6.1691ZM24.7126 19.5381C24.7601 17.9052 24.6408 16.2718 24.3566 14.6631C24.2413 14.1297 23.959 13.647 23.5506 13.2851C23.1559 12.9243 22.657 12.6978 22.1256 12.6381C19.5569 12.4149 16.9787 12.3208 14.4006 12.3561C11.8288 12.321 9.25691 12.4151 6.69459 12.6381C6.15942 12.6938 5.65651 12.9207 5.26059 13.2851C4.85575 13.649 4.57583 14.1311 4.46059 14.6631C4.16607 16.2706 4.04039 17.9045 4.08559 19.5381C4.03676 21.1718 4.16248 22.8061 4.46059 24.4131C4.5802 24.9408 4.85954 25.4189 5.26059 25.7821C5.64889 26.1487 6.14591 26.3789 6.67659 26.4381C8.38926 26.6261 10.9643 26.7201 14.4016 26.7201C17.8389 26.7201 20.4139 26.6261 22.1266 26.4381C22.6573 26.3789 23.1543 26.1487 23.5426 25.7821C23.9436 25.4189 24.223 24.9408 24.3426 24.4131C24.6407 22.8061 24.7664 21.1718 24.7176 19.5381H24.7126ZM10.5566 7.3311L12.2436 1.7811H10.8376L9.88159 5.4371L8.88759 1.7811H7.42559C7.51293 2.06844 7.65659 2.49977 7.85659 3.0751L8.30659 4.3691C8.65312 5.33799 8.9413 6.32676 9.16959 7.3301V11.1001H10.5566V7.3311ZM15.9746 8.85011V6.4131C16.0144 5.84183 15.8768 5.27221 15.5806 4.7821C15.4131 4.55347 15.1925 4.36907 14.9378 4.24484C14.683 4.12061 14.4019 4.06029 14.1186 4.0691C13.8345 4.05472 13.5514 4.11257 13.2957 4.23725C13.0401 4.36194 12.8202 4.54939 12.6566 4.7821C12.3604 5.27221 12.2228 5.84183 12.2626 6.4131V8.85011C12.2228 9.42138 12.3604 9.99099 12.6566 10.4811C12.8202 10.7138 13.0401 10.9013 13.2957 11.026C13.5514 11.1506 13.8345 11.2085 14.1186 11.1941C14.4019 11.2029 14.683 11.1426 14.9378 11.0184C15.1925 10.8941 15.4131 10.7097 15.5806 10.4811C15.8834 9.99374 16.0215 9.42195 15.9746 8.85011V8.85011ZM19.3686 11.1001H20.6246V4.1621H19.3686V9.4691C19.0933 9.8571 18.8309 10.0511 18.5816 10.0511C18.3936 10.0511 18.2936 9.95111 18.2816 9.75111C18.2619 9.58957 18.2559 9.42666 18.2636 9.2641V4.1641H17.0066V9.65611C16.9927 10.0035 17.0308 10.351 17.1196 10.6871C17.1807 10.8476 17.2924 10.9838 17.4379 11.0751C17.5833 11.1664 17.7545 11.2078 17.9256 11.1931C18.2113 11.1588 18.4868 11.0663 18.7352 10.9211C18.9836 10.7759 19.1996 10.5812 19.3696 10.3491V11.0991L19.3686 11.1001ZM28.8006 5.4001V23.4001C28.7985 24.8316 28.2289 26.2039 27.2166 27.2161C26.2044 28.2284 24.8321 28.798 23.4006 28.8001H5.40059C4.69005 28.8108 3.98485 28.6758 3.32852 28.4034C2.67219 28.1309 2.07867 27.7269 1.58459 27.2161C1.07383 26.722 0.669761 26.1285 0.397323 25.4722C0.124886 24.8159 -0.0101363 24.1106 0.000592763 23.4001V5.4001C-0.0101363 4.68956 0.124886 3.98436 0.397323 3.32803C0.669761 2.6717 1.07383 2.07818 1.58459 1.5841C2.07867 1.07334 2.67219 0.669273 3.32852 0.396835C3.98485 0.124397 4.69005 -0.0106246 5.40059 0.000104481H23.4006C24.1111 -0.0106246 24.8163 0.124397 25.4727 0.396835C26.129 0.669273 26.7225 1.07334 27.2166 1.5841C27.7274 2.07818 28.1314 2.6717 28.4039 3.32803C28.6763 3.98436 28.8113 4.68956 28.8006 5.4001Z" fill="#FFFCFC"/>
</svg>
