<svg width="96" height="96" viewBox="0 0 96 96" fill="none" xmlns="http://www.w3.org/2000/svg">
<path d="M48 96C74.5097 96 96 74.5097 96 48C96 21.4903 74.5097 0 48 0C21.4903 0 0 21.4903 0 48C0 74.5097 21.4903 96 48 96Z" fill="#FED812"/>
<path d="M47.9768 26.0001C45.1714 26.0144 42.9 28.4714 42.9 31.5001C42.9 33.2142 43.6337 34.5313 44.4174 35.822C45.1416 37.0137 44.2323 38.5761 42.9199 38.4001C39.0456 37.8831 35.1238 37.0824 35.1238 37.0824L35.1205 37.086C34.8839 37.0297 34.6423 37.0009 34.4 37C33.4983 37 32.6335 37.3864 31.9958 38.074C31.3582 38.7616 31 39.6943 31 40.6667V49.5147C31 51.183 32.711 52.2196 34.0115 51.3158C35.2576 50.4486 36.5542 49.6879 38.2814 49.8584C40.4149 50.0674 42.2845 51.7822 42.7639 54.0336C43.5255 57.636 41.0096 60.8333 37.8 60.8333C36.321 60.8333 35.16 60.1462 34.0414 59.3688C32.7273 58.4558 31 59.46 31 61.1449V65.5384C31 68.3654 32.5215 70 34.4 70H48H61.6C63.4785 70 65 68.3592 65 66.3333V40.6667C65 39.6943 64.6418 38.7616 64.0042 38.074C63.3665 37.3864 62.5017 37 61.6 37C61.3588 37.0012 61.1184 37.03 60.8828 37.086L60.8762 37.0824C60.8762 37.0824 56.9544 37.8831 53.0801 38.4001C51.7643 38.5761 50.8617 37.0084 51.5893 35.8112C52.4512 34.3923 53.2502 32.9357 53.0768 30.9594C52.8762 28.6659 51.2861 26.6602 49.2053 26.1469C48.7877 26.0438 48.3775 25.998 47.9768 26.0001Z" fill="black"/>
</svg>
