<svg width="30" height="30" viewBox="0 0 30 30" fill="none" xmlns="http://www.w3.org/2000/svg">
<path d="M27 0H3C1.35 0 0 1.35 0 3V27C0 28.65 1.35 30 3 30H27C28.65 30 30 28.65 30 27V3C30 1.35 28.65 0 27 0ZM23.55 10.95C23.4 17.85 19.05 22.65 12.45 22.95C9.75 23.1 7.8 22.2 6 21.15C7.95 21.4501 10.5 20.7001 11.85 19.5C9.9 19.35 8.7 18.3 8.1 16.65C8.7 16.8 9.3 16.65 9.75 16.65C7.95 16.05 6.75 15 6.6 12.6C7.05 12.9 7.65 13.05 8.25 13.05C6.9 12.3 6 9.45 7.05 7.65C9 9.75 11.4 11.55 15.3 11.85C14.25 7.65 19.9501 5.4 22.2001 8.25C23.2501 8.1 24.0001 7.65 24.7501 7.35C24.4501 8.4 23.8501 9 23.1001 9.6C23.8501 9.45 24.6001 9.3 25.2001 9C25.05 9.75 24.3 10.35 23.55 10.95Z" fill="white"/>
</svg>
