<svg width="23" height="27" viewBox="0 0 23 27" fill="none" xmlns="http://www.w3.org/2000/svg">
<path d="M22.3905 22.2318C22.4204 23.4152 22.0351 24.5718 21.3015 25.5008C21.0009 25.9191 20.6059 26.2605 20.1486 26.4975C19.6913 26.7345 19.1845 26.8604 18.6695 26.8648H3.72646C3.21139 26.8604 2.70461 26.7346 2.24729 26.4976C1.78997 26.2606 1.395 25.9191 1.09446 25.5008C0.359754 24.5721 -0.0269131 23.4156 0.00145714 22.2318C-0.00125253 21.2938 0.0484918 20.3563 0.150457 19.4238C0.253834 18.523 0.438248 17.6334 0.701457 16.7658C0.931874 15.9574 1.27634 15.186 1.72446 14.4748C2.14338 13.8346 2.70641 13.3013 3.36846 12.9178C4.08371 12.5077 4.89718 12.3003 5.72146 12.3178C6.43666 13.0399 7.29014 13.6104 8.23085 13.9951C9.17157 14.3798 10.1802 14.5708 11.1965 14.5568C12.2127 14.5708 13.2213 14.3798 14.1621 13.9951C15.1028 13.6104 15.9563 13.0399 16.6715 12.3178C17.4954 12.3007 18.3084 12.5081 19.0235 12.9178C19.6855 13.3013 20.2485 13.8346 20.6675 14.4748C21.1156 15.186 21.46 15.9574 21.6905 16.7658C21.9537 17.6338 22.1381 18.5237 22.2415 19.4248C22.3434 20.3573 22.3932 21.2948 22.3905 22.2328V22.2318ZM17.9125 6.7178C17.9264 7.60185 17.7589 8.47937 17.4204 9.29618C17.0819 10.113 16.5796 10.8517 15.9445 11.4668C15.3292 12.1017 14.5904 12.6038 13.7736 12.9423C12.9569 13.2807 12.0795 13.4484 11.1955 13.4348C10.3114 13.4488 9.43383 13.2814 8.61701 12.9429C7.80019 12.6044 7.06146 12.1021 6.44646 11.4668C5.81167 10.8515 5.30965 10.1127 4.97135 9.29592C4.63305 8.47915 4.46565 7.60175 4.47946 6.7178C4.46578 5.83378 4.63334 4.95633 4.97181 4.13956C5.31028 3.32279 5.81249 2.58402 6.44746 1.9688C7.06234 1.33367 7.80091 0.831345 8.61755 0.492856C9.43419 0.154367 10.3116 -0.0130999 11.1955 0.000799485C12.0795 -0.012763 12.9569 0.154853 13.7736 0.493318C14.5904 0.831783 15.3292 1.33393 15.9445 1.9688C16.5796 2.58387 17.0819 3.32262 17.4204 4.13942C17.7589 4.95623 17.9264 5.83375 17.9125 6.7178V6.7178Z" fill="white"/>
</svg>
