<svg width="36" height="36" viewBox="0 0 36 36" fill="none" xmlns="http://www.w3.org/2000/svg">
<path d="M19.385 32.4732L33.231 24.9232V11.1622L19.385 16.1992V32.4722V32.4732ZM18 13.7592L33.1 8.26424L18 2.76924L2.90003 8.26424L18 13.7592ZM36 8.30724V24.9222C36.0026 25.4178 35.8679 25.9044 35.611 26.3282C35.356 26.7567 34.9897 27.1082 34.551 27.3452L19.32 35.6532C18.9171 35.8801 18.4625 35.9992 18 35.9992C17.5376 35.9992 17.083 35.8801 16.68 35.6532L1.45003 27.3452C1.01135 27.1082 0.645049 26.7567 0.390035 26.3282C0.132792 25.9045 -0.00218844 25.4179 3.47948e-05 24.9222V8.30724C-0.00283648 7.74152 0.172062 7.18919 0.500035 6.72824C0.822703 6.2594 1.28441 5.90368 1.82003 5.71124L17.048 0.172241C17.6605 -0.0574136 18.3355 -0.0574136 18.948 0.172241L34.183 5.71024C34.715 5.9053 35.1743 6.25873 35.4992 6.7229C35.8241 7.18707 35.9989 7.73967 36 8.30624V8.30724Z" fill="#A0A1A7"/>
</svg>
