<svg width="40" height="34" viewBox="0 0 40 34" fill="none" xmlns="http://www.w3.org/2000/svg">
<path d="M30.6651 10.7322C30.6669 10.4288 30.5782 10.1316 30.4103 9.87888C30.2423 9.62612 30.0028 9.4292 29.7223 9.31334C29.4418 9.19748 29.1332 9.16793 28.8358 9.22848C28.5384 9.28903 28.2659 9.43692 28.0531 9.65324L24.5321 13.1532V6.13224C24.5218 5.73231 24.3558 5.35219 24.0693 5.07294C23.7828 4.79369 23.3986 4.6374 22.9986 4.6374C22.5985 4.6374 22.2143 4.79369 21.9278 5.07294C21.6413 5.35219 21.4753 5.73231 21.4651 6.13224V13.1512L17.9451 9.65124C17.8034 9.50961 17.6353 9.39726 17.4502 9.32061C17.2652 9.24396 17.0669 9.20451 16.8666 9.20451C16.6663 9.20451 16.4679 9.24396 16.2829 9.32061C16.0978 9.39726 15.9297 9.50961 15.7881 9.65124C15.6464 9.79287 15.5341 9.96101 15.4574 10.1461C15.3808 10.3311 15.3413 10.5294 15.3413 10.7297C15.3413 10.93 15.3808 11.1284 15.4574 11.3134C15.5341 11.4985 15.6464 11.6666 15.7881 11.8082L21.9201 17.9402C22.0604 18.0842 22.2281 18.1986 22.4133 18.2767C22.5985 18.3549 22.7975 18.3951 22.9986 18.3951C23.1996 18.3951 23.3986 18.3549 23.5838 18.2767C23.769 18.1986 23.9367 18.0842 24.0771 17.9402L30.2091 11.8082C30.3546 11.669 30.47 11.5014 30.5483 11.3159C30.6266 11.1303 30.666 10.9306 30.6641 10.7292L30.6651 10.7322ZM15.3321 30.6652C15.3318 31.4784 15.0087 32.2582 14.4338 32.8333C13.8589 33.4084 13.0792 33.7317 12.2661 33.7322C11.7613 33.733 11.2641 33.6091 10.8187 33.3716C10.3733 33.1341 9.99337 32.7903 9.71266 32.3708C9.43195 31.9513 9.25912 31.469 9.20952 30.9666C9.15991 30.4643 9.23506 29.9575 9.4283 29.4912C9.62153 29.0248 9.92687 28.6134 10.3172 28.2934C10.7076 27.9734 11.1709 27.7546 11.6661 27.6566C12.1613 27.5586 12.673 27.5843 13.1558 27.7315C13.6387 27.8786 14.0777 28.1427 14.4341 28.5002C14.7243 28.7809 14.9539 29.1181 15.1087 29.491C15.2634 29.8639 15.3402 30.2645 15.3341 30.6682L15.3321 30.6652ZM36.7981 30.6652C36.7987 31.3746 36.5535 32.0622 36.104 32.611C35.6545 33.1597 35.0287 33.5357 34.3331 33.6747C33.6375 33.8138 32.9152 33.7073 32.2893 33.3736C31.6634 33.0398 31.1726 32.4993 30.9006 31.8442C30.6285 31.1891 30.592 30.4599 30.7972 29.781C31.0025 29.102 31.4369 28.5152 32.0263 28.1205C32.6157 27.7259 33.3238 27.5478 34.0298 27.6167C34.7357 27.6856 35.396 27.9971 35.8981 28.4982C36.1881 28.7788 36.4177 29.1158 36.5725 29.4885C36.7272 29.8612 36.804 30.2617 36.7981 30.6652ZM39.8641 4.60024V16.8662C39.8673 17.2414 39.7307 17.6043 39.4811 17.8842C39.2323 18.176 38.8805 18.3605 38.4991 18.3992L13.4871 21.3222C13.5031 21.4336 13.5387 21.6052 13.5941 21.8372C13.6494 22.0692 13.6974 22.2809 13.7381 22.4722C13.7774 22.6455 13.7982 22.8225 13.8001 23.0002C13.701 23.5417 13.5063 24.0611 13.2251 24.5342H35.2641C35.664 24.5445 36.0441 24.7105 36.3234 24.997C36.6026 25.2834 36.7589 25.6677 36.7589 26.0677C36.7589 26.4678 36.6026 26.852 36.3234 27.1385C36.0441 27.425 35.664 27.591 35.2641 27.6012H10.7321C10.327 27.5955 9.94019 27.4319 9.65403 27.1452C9.36786 26.8584 9.20497 26.4713 9.20006 26.0662C9.22773 25.7368 9.31729 25.4155 9.46406 25.1192C9.64006 24.7119 9.87539 24.2369 10.1701 23.6942C10.4647 23.1516 10.6287 22.8482 10.6621 22.7842L6.42006 3.06624H1.53406C1.33266 3.06814 1.13301 3.02874 0.947435 2.95049C0.761856 2.87223 0.594283 2.75677 0.455058 2.61124C0.309723 2.47228 0.194377 2.30504 0.116126 2.11981C0.0378742 1.93459 -0.00162623 1.73531 5.76831e-05 1.53424C-0.00172265 1.33286 0.0377256 1.13325 0.115975 0.947685C0.194224 0.762123 0.309619 0.594536 0.455058 0.455238C0.594063 0.309418 0.761595 0.19377 0.947225 0.115493C1.13286 0.0372147 1.33261 -0.00201734 1.53406 0.00023829H7.66606C7.90302 -0.00404605 8.13745 0.0494997 8.34906 0.156238C8.53173 0.246944 8.69455 0.373054 8.82806 0.527238C8.96527 0.703203 9.07053 0.901883 9.13906 1.11424C9.21522 1.3209 9.27507 1.53322 9.31806 1.74924C9.35006 1.9239 9.39406 2.15924 9.45006 2.45524C9.50606 2.75124 9.54172 2.9549 9.55706 3.06624H38.3311C38.5325 3.06434 38.7321 3.10373 38.9177 3.18199C39.1033 3.26025 39.2708 3.3757 39.4101 3.52124C39.5554 3.66055 39.6707 3.82816 39.7488 4.01374C39.8268 4.19931 39.8661 4.39892 39.8641 4.60024Z" fill="#FF8103"/>
</svg>
