<svg width="96" height="96" viewBox="0 0 96 96" fill="none" xmlns="http://www.w3.org/2000/svg">
<path d="M48 96C74.5097 96 96 74.5097 96 48C96 21.4903 74.5097 0 48 0C21.4903 0 0 21.4903 0 48C0 74.5097 21.4903 96 48 96Z" fill="#FED812"/>
<path d="M62.3126 50.693L62.7289 57.4583C62.7911 58.4431 62.1583 59.3564 60.8304 60.1982C59.1454 61.1754 57.3036 61.8527 55.3871 62.2002C52.926 62.7085 50.4182 62.9558 47.9053 62.9382C45.3923 62.9558 42.8845 62.7085 40.4235 62.2002C38.5069 61.8527 36.6652 61.1754 34.9802 60.1982C33.6523 59.3573 33.0195 58.444 33.0817 57.4583L33.498 50.693L46.7939 54.567C47.5219 54.7662 48.29 54.7662 49.0179 54.567L62.3126 50.693ZM74.5893 43.7549C74.5946 43.9067 74.5473 44.0558 74.4553 44.1767C74.3634 44.2976 74.2324 44.383 74.0847 44.4184L48.1349 51.9545C47.9819 51.9838 47.8248 51.9838 47.6719 51.9545L32.5733 47.5456C31.8119 48.1701 31.2433 48.9977 30.9334 49.9324C30.4764 51.1581 30.2109 52.4468 30.1462 53.7534C30.5915 53.9563 30.9673 54.2858 31.2266 54.7008C31.4859 55.1158 31.6173 55.5979 31.6045 56.0871C31.6131 56.5556 31.4922 57.0174 31.2552 57.4216C31.0181 57.8258 30.6741 58.1567 30.261 58.3779L31.6045 67.6473C31.6199 67.745 31.6111 67.845 31.5788 67.9385C31.5464 68.032 31.4916 68.1161 31.4191 68.1834C31.3495 68.2614 31.2636 68.323 31.1674 68.3638C31.0712 68.4046 30.9672 68.4235 30.8627 68.4193H26.4085C26.3041 68.4235 26.2 68.4046 26.1038 68.3638C26.0076 68.323 25.9217 68.2614 25.8522 68.1834C25.7797 68.1161 25.7248 68.032 25.6925 67.9385C25.6601 67.845 25.6513 67.745 25.6667 67.6473L27.0102 58.3779C26.5892 58.1423 26.2412 57.7952 26.0044 57.3748C25.7677 56.9543 25.6513 56.4768 25.6681 55.9946C25.6849 55.5124 25.8343 55.0441 26.0997 54.6412C26.3652 54.2382 26.7365 53.9162 27.1729 53.7105C27.202 51.1809 27.9933 48.719 29.4436 46.6462L21.7246 44.4197C21.5787 44.3806 21.4497 44.2945 21.3577 44.1746C21.2657 44.0548 21.2158 43.9079 21.2158 43.7568C21.2158 43.6057 21.2657 43.4588 21.3577 43.339C21.4497 43.2191 21.5787 43.133 21.7246 43.0939L47.6732 35.5578C47.8261 35.5286 47.9832 35.5286 48.1361 35.5578L74.0758 43.0939C74.2236 43.1293 74.3545 43.2147 74.4465 43.3357C74.5385 43.4566 74.5858 43.6056 74.5804 43.7574L74.5893 43.7549Z" fill="black"/>
</svg>
