<svg width="40" height="24" viewBox="0 0 40 24" fill="none" xmlns="http://www.w3.org/2000/svg">
<path d="M30.7992 11.0623L31.1112 15.9998C31.1578 16.7186 30.6835 17.3851 29.6883 17.9995C28.4256 18.7127 27.0453 19.2071 25.609 19.4606C23.7646 19.8316 21.8852 20.0121 20.0019 19.9992C18.1186 20.0121 16.2392 19.8316 14.3948 19.4606C12.9585 19.2071 11.5782 18.7127 10.3154 17.9995C9.32027 17.3858 8.846 16.7192 8.89264 15.9998L9.20462 11.0623L19.169 13.8897C19.7146 14.035 20.2902 14.035 20.8357 13.8897L30.7992 11.0623ZM39.9997 5.99856C40.0037 6.10937 39.9682 6.21813 39.8993 6.30639C39.8304 6.39465 39.7323 6.45699 39.6215 6.48284L20.174 11.9829C20.0593 12.0043 19.9416 12.0043 19.827 11.9829L8.51165 8.76519C7.94103 9.22091 7.51487 9.82493 7.28264 10.5071C6.94017 11.4017 6.74119 12.3423 6.69272 13.2958C7.02645 13.4439 7.30804 13.6844 7.50238 13.9873C7.69672 14.2901 7.79522 14.642 7.78559 14.9991C7.79203 15.341 7.70144 15.678 7.52379 15.973C7.34614 16.268 7.08833 16.5096 6.77875 16.671L7.78559 23.4361C7.79717 23.5074 7.79054 23.5804 7.76631 23.6487C7.74207 23.7169 7.70097 23.7783 7.64662 23.8274C7.59453 23.8843 7.53011 23.9293 7.45802 23.9591C7.38592 23.9889 7.30795 24.0027 7.2297 23.9996H3.89154C3.8133 24.0027 3.73532 23.9889 3.66322 23.9591C3.59113 23.9293 3.52671 23.8843 3.47462 23.8274C3.42027 23.7783 3.37917 23.7169 3.35493 23.6487C3.3307 23.5804 3.32408 23.5074 3.33565 23.4361L4.34249 16.671C4.02694 16.499 3.76615 16.2457 3.58872 15.9388C3.4113 15.632 3.3241 15.2835 3.3367 14.9315C3.3493 14.5796 3.46121 14.2378 3.66015 13.9438C3.85909 13.6497 4.13736 13.4147 4.46444 13.2645C4.48622 11.4184 5.07928 9.62151 6.16614 8.10874L0.381311 6.48376C0.271926 6.45524 0.175262 6.39237 0.106317 6.30489C0.0373718 6.21741 0 6.11022 0 5.99994C0 5.88967 0.0373718 5.78247 0.106317 5.69499C0.175262 5.60752 0.271926 5.54464 0.381311 5.51613L19.8279 0.0160246C19.9426 -0.00534154 20.0603 -0.00534154 20.1749 0.0160246L39.6149 5.51613C39.7256 5.54197 39.8238 5.60431 39.8927 5.69257C39.9616 5.78083 39.9971 5.88959 39.9931 6.0004L39.9997 5.99856Z" fill="#A0A1A7"/>
</svg>
