<svg width="31" height="24" viewBox="0 0 31 24" fill="none" xmlns="http://www.w3.org/2000/svg">
<path d="M11.84 2.15273C10.1959 2.13974 8.56416 2.43658 7.03 3.02773C5.67119 3.52203 4.45121 4.33592 3.473 5.40073C2.6458 6.268 2.17467 7.41442 2.153 8.61273C2.16551 9.56983 2.47744 10.499 3.045 11.2697C3.70837 12.1837 4.56371 12.9414 5.551 13.4897L7.183 14.4317L6.594 15.8447C6.97533 15.6201 7.323 15.4014 7.637 15.1887L8.377 14.6667L9.269 14.8347C10.118 14.9891 10.9791 15.0678 11.842 15.0697C13.4861 15.0827 15.1178 14.7859 16.652 14.1947C18.0107 13.7007 19.2307 12.8872 20.209 11.8227C21.0362 10.9555 21.5073 9.80904 21.529 8.61073C21.5068 7.41312 21.0357 6.2675 20.209 5.40073C19.2303 4.3356 18.0096 3.52167 16.65 3.02773C15.1158 2.43681 13.484 2.13998 11.84 2.15273ZM11.84 0.000730098C13.8793 -0.0192881 15.9017 0.372536 17.786 1.15273C19.4664 1.81627 20.9508 2.89567 22.1 4.28973C23.1208 5.49869 23.6808 7.02993 23.6808 8.61223C23.6808 10.1945 23.1208 11.7258 22.1 12.9347C20.9504 14.3283 19.4661 15.4077 17.786 16.0717C15.9021 16.8519 13.88 17.2434 11.841 17.2227C10.8484 17.2201 9.85786 17.1301 8.881 16.9537C7.46567 17.9518 5.87899 18.6812 4.2 19.1057C3.72271 19.2207 3.23971 19.3105 2.753 19.3747H2.703C2.57542 19.3731 2.45277 19.3252 2.358 19.2397C2.25186 19.1503 2.18301 19.0244 2.165 18.8867C2.15342 18.8512 2.14768 18.8141 2.148 18.7767C2.14763 18.7399 2.15031 18.7031 2.156 18.6667C2.16212 18.632 2.17324 18.5983 2.189 18.5667L2.231 18.4827L2.29 18.3907L2.357 18.3067L2.432 18.2227L2.499 18.1477C2.555 18.0811 2.684 17.9411 2.886 17.7277C3.04027 17.5688 3.18613 17.4019 3.323 17.2277C3.41233 17.1097 3.53833 16.9471 3.701 16.7397C3.86074 16.5375 4.00134 16.3209 4.121 16.0927C4.23833 15.8681 4.35333 15.6214 4.466 15.3527C3.16141 14.6227 2.04036 13.6049 1.188 12.3767C0.417126 11.2723 0.00257457 9.95855 0 8.61173C0.00815835 7.03101 0.567253 5.5026 1.581 4.28973C2.73041 2.89589 4.21474 1.81654 5.895 1.15273C7.77898 0.372668 9.80101 -0.0191533 11.84 0.000730098ZM25.665 19.6607C25.777 19.9274 25.892 20.1741 26.01 20.4007C26.1301 20.6287 26.2706 20.8453 26.43 21.0477C26.5927 21.2551 26.7187 21.4177 26.808 21.5357C26.8973 21.6537 27.043 21.8204 27.245 22.0357C27.445 22.2484 27.574 22.3884 27.632 22.4557C27.6433 22.4671 27.6657 22.4921 27.699 22.5307C27.7323 22.5694 27.7573 22.5974 27.774 22.6147C27.7984 22.641 27.8208 22.6691 27.841 22.6987C27.8629 22.7279 27.8826 22.7587 27.9 22.7907L27.942 22.8747L27.975 22.9747L27.983 23.0847L27.966 23.1947C27.9392 23.3401 27.8616 23.4713 27.747 23.5647C27.6961 23.6077 27.6372 23.6403 27.5737 23.6606C27.5103 23.6808 27.4434 23.6883 27.377 23.6827C26.8904 23.6178 26.4074 23.528 25.93 23.4137C24.2529 22.9881 22.6681 22.2588 21.254 21.2617C20.2771 21.4381 19.2866 21.5281 18.294 21.5307C15.4862 21.5961 12.7226 20.8232 10.356 19.3107C11.006 19.3554 11.4993 19.3777 11.836 19.3777C13.5973 19.3845 15.3498 19.1294 17.036 18.6207C18.6266 18.15 20.1273 17.4166 21.476 16.4507C22.7952 15.5076 23.895 14.2905 24.7 12.8827C25.2829 11.8552 25.6492 10.7192 25.7765 9.54479C25.9037 8.37033 25.7892 7.18226 25.44 6.05373C26.7997 6.77318 27.9741 7.798 28.871 9.04773C29.6791 10.1552 30.1201 11.4879 30.1323 12.8588C30.1445 14.2297 29.7272 15.57 28.939 16.6917C28.0859 17.916 26.9666 18.931 25.665 19.6607Z" fill="white"/>
</svg>
