<svg width="27" height="23" viewBox="0 0 27 23" fill="none" xmlns="http://www.w3.org/2000/svg">
<path d="M12.0464 13.0501V19.0731C12.048 19.4691 11.9712 19.8615 11.8204 20.2276C11.6696 20.5938 11.4478 20.9265 11.1678 21.2065C10.8878 21.4865 10.5551 21.7083 10.1889 21.8591C9.82279 22.0099 9.43041 22.0867 9.03442 22.0851H3.01242C2.61566 22.0923 2.22164 22.0181 1.85475 21.8669C1.48786 21.7157 1.1559 21.4908 0.87942 21.2061C0.595147 20.9294 0.370516 20.5973 0.219349 20.2305C0.0681828 19.8637 -0.00632198 19.4698 0.000419913 19.0731V8.03113C-0.00312687 6.96094 0.212998 5.90142 0.63542 4.91813C1.44193 2.98153 2.98101 1.44208 4.91742 0.635126C5.90118 0.213087 6.96095 -0.00301921 8.03142 0.000126029H9.03142C9.16336 -0.000789013 9.29408 0.0253612 9.41551 0.0769608C9.53694 0.12856 9.6465 0.204513 9.73742 0.300126C9.83303 0.391045 9.90899 0.500605 9.96058 0.622036C10.0122 0.743467 10.0383 0.87419 10.0374 1.00613V3.01213C10.0383 3.14406 10.0122 3.27479 9.96058 3.39622C9.90899 3.51765 9.83303 3.62721 9.73742 3.71813C9.6465 3.81374 9.53694 3.88969 9.41551 3.94129C9.29408 3.99289 9.16336 4.01904 9.03142 4.01813H8.03142C7.50312 4.00959 6.97867 4.10935 6.4904 4.31126C6.00213 4.51317 5.56039 4.81296 5.19242 5.19213C4.81258 5.55996 4.51217 6.00174 4.30974 6.49021C4.1073 6.97867 4.00713 7.50344 4.01542 8.03213V8.53213C4.01463 8.73012 4.05304 8.92631 4.12844 9.10938C4.20384 9.29246 4.31474 9.45879 4.45475 9.5988C4.59475 9.7388 4.76109 9.8497 4.94416 9.92511C5.12724 10.0005 5.32343 10.0389 5.52142 10.0381H9.03442C9.43041 10.0365 9.82279 10.1134 10.1889 10.2642C10.5551 10.415 10.8878 10.6368 11.1678 10.9168C11.4478 11.1968 11.6696 11.5295 11.8204 11.8956C11.9712 12.2618 12.048 12.6541 12.0464 13.0501ZM26.1004 13.0501V19.0731C26.102 19.4691 26.0252 19.8615 25.8744 20.2276C25.7236 20.5938 25.5018 20.9265 25.2218 21.2065C24.9418 21.4865 24.6091 21.7083 24.2429 21.8591C23.8768 22.0099 23.4844 22.0867 23.0884 22.0851H17.0654C16.6694 22.0867 16.2771 22.0099 15.9109 21.8591C15.5448 21.7083 15.2121 21.4865 14.9321 21.2065C14.6521 20.9265 14.4303 20.5938 14.2795 20.2276C14.1287 19.8615 14.0518 19.4691 14.0534 19.0731V8.03113C14.0499 6.96094 14.266 5.90142 14.6884 4.91813C15.4956 2.98165 17.0349 1.44233 18.9714 0.635126C19.9552 0.213005 21.0149 -0.00310405 22.0854 0.000126029H23.0854C23.2189 -0.00203079 23.3513 0.0235167 23.4744 0.075154C23.5974 0.126791 23.7085 0.203396 23.8004 0.300126C23.896 0.391045 23.972 0.500605 24.0236 0.622036C24.0752 0.743467 24.1013 0.87419 24.1004 1.00613V3.01213C24.1013 3.14406 24.0752 3.27479 24.0236 3.39622C23.972 3.51765 23.896 3.62721 23.8004 3.71813C23.7095 3.81374 23.5999 3.88969 23.4785 3.94129C23.3571 3.99289 23.2264 4.01904 23.0944 4.01813H22.0944C21.5659 4.00998 21.0413 4.11021 20.553 4.31264C20.0648 4.51508 19.6231 4.81541 19.2554 5.19513C18.8757 5.56284 18.5754 6.00446 18.3729 6.49275C18.1705 6.98103 18.0703 7.50561 18.0784 8.03413V8.53413C18.0776 8.73212 18.116 8.92831 18.1914 9.11138C18.2668 9.29446 18.3777 9.46079 18.5177 9.6008C18.6578 9.7408 18.8241 9.8517 19.0072 9.9271C19.1902 10.0025 19.3864 10.0409 19.5844 10.0401H23.0974C23.4926 10.0397 23.8839 10.1174 24.2489 10.2687C24.614 10.4199 24.9455 10.6418 25.2246 10.9216C25.5036 11.2014 25.7246 11.5336 25.8749 11.899C26.0252 12.2644 26.1019 12.656 26.1004 13.0511V13.0501Z" fill="#CDD1DB"/>
</svg>
