<svg width="25" height="21" viewBox="0 0 25 21" fill="none" xmlns="http://www.w3.org/2000/svg">
<path d="M11.3604 2.84043V13.2534C11.3634 14.2628 11.1592 15.2621 10.7604 16.1894C9.99957 18.0152 8.54824 19.4666 6.72243 20.2274C5.79504 20.6259 4.79581 20.8301 3.78643 20.8274H2.83943C2.71511 20.8286 2.59187 20.8042 2.47733 20.7559C2.36278 20.7076 2.25935 20.6363 2.17343 20.5464C2.08358 20.4605 2.01229 20.3571 1.96396 20.2425C1.91563 20.128 1.89129 20.0047 1.89243 19.8804V17.9874C1.89129 17.8631 1.91563 17.7399 1.96396 17.6253C2.01229 17.5108 2.08358 17.4074 2.17343 17.3214C2.25935 17.2316 2.36278 17.1603 2.47733 17.112C2.59187 17.0636 2.71511 17.0393 2.83943 17.0404H3.78643C4.2848 17.0481 4.77946 16.9536 5.23988 16.7627C5.7003 16.5717 6.11671 16.2885 6.46343 15.9304C6.82151 15.5837 7.10475 15.1673 7.29566 14.7069C7.48657 14.2465 7.5811 13.7518 7.57343 13.2534V12.7804C7.57409 12.5938 7.53781 12.4088 7.46668 12.2362C7.39555 12.0637 7.29098 11.9069 7.15899 11.7749C7.027 11.6429 6.8702 11.5383 6.69762 11.4672C6.52504 11.396 6.34009 11.3598 6.15343 11.3604H2.84043C2.46636 11.367 2.09492 11.2969 1.74904 11.1543C1.40315 11.0117 1.09017 10.7997 0.829426 10.5314C0.56133 10.2705 0.349475 9.95753 0.206905 9.61168C0.0643338 9.26583 -0.00593474 8.89446 0.000425626 8.52043V2.84043C-0.00617171 2.46636 0.0639886 2.09492 0.206573 1.74904C0.349158 1.40315 0.561139 1.09017 0.829426 0.829426C1.09035 0.561378 1.40336 0.349554 1.74921 0.206987C2.09505 0.0644199 2.4664 -0.00587563 2.84043 0.000425626H8.52043C8.89449 -0.00617171 9.26593 0.0639886 9.61182 0.206573C9.9577 0.349158 10.2707 0.561139 10.5314 0.829426C10.7995 1.09035 11.0113 1.40336 11.1539 1.74921C11.2964 2.09505 11.3667 2.4664 11.3604 2.84043ZM24.6134 2.84043V13.2534C24.6164 14.2628 24.4122 15.2621 24.0134 16.1894C23.2526 18.0152 21.8012 19.4666 19.9754 20.2274C19.048 20.6259 18.0488 20.8301 17.0394 20.8274H16.0924C15.8423 20.8241 15.6034 20.7232 15.4265 20.5463C15.2496 20.3695 15.1488 20.1305 15.1454 19.8804V17.9874C15.1488 17.7373 15.2496 17.4984 15.4265 17.3215C15.6034 17.1446 15.8423 17.0438 16.0924 17.0404H17.0394C18.0436 17.0399 19.0066 16.6407 19.7167 15.9307C20.4267 15.2206 20.8259 14.2576 20.8264 13.2534V12.7804C20.8271 12.5938 20.7908 12.4088 20.7197 12.2362C20.6486 12.0637 20.544 11.9069 20.412 11.7749C20.28 11.6429 20.1232 11.5383 19.9506 11.4672C19.778 11.396 19.5931 11.3598 19.4064 11.3604H16.0934C15.7201 11.3619 15.3501 11.2894 15.0049 11.1472C14.6597 11.005 14.346 10.7959 14.082 10.5319C13.818 10.2678 13.6089 9.95419 13.4666 9.60896C13.3244 9.26374 13.252 8.89379 13.2534 8.52043V2.84043C13.2468 2.46636 13.317 2.09492 13.4596 1.74904C13.6022 1.40315 13.8141 1.09017 14.0824 0.829426C14.3434 0.561378 14.6564 0.349554 15.0022 0.206987C15.348 0.0644199 15.7194 -0.00587563 16.0934 0.000425626H21.7734C22.1475 -0.00617171 22.5189 0.0639886 22.8648 0.206573C23.2107 0.349158 23.5237 0.561139 23.7844 0.829426C24.0525 1.09035 24.2643 1.40336 24.4069 1.74921C24.5494 2.09505 24.6197 2.4664 24.6134 2.84043Z" fill="#CDD1DB"/>
</svg>
