<svg width="20" height="24" viewBox="0 0 20 24" fill="none" xmlns="http://www.w3.org/2000/svg">
<path d="M18.9242 4.90015C19.1924 5.18337 19.4027 5.51628 19.5432 5.88015C19.7021 6.23738 19.7894 6.62231 19.8002 7.01315V21.8631C19.8007 22.0258 19.7691 22.187 19.707 22.3374C19.645 22.4878 19.5538 22.6244 19.4387 22.7394C19.3236 22.8544 19.187 22.9454 19.0365 23.0074C18.8861 23.0693 18.7249 23.1008 18.5622 23.1001H1.23821C1.0751 23.1032 0.913111 23.0727 0.762259 23.0106C0.611407 22.9485 0.474906 22.8561 0.361207 22.7391C0.24473 22.6253 0.152654 22.4889 0.0905908 22.3383C0.0285273 22.1877 -0.00222516 22.026 0.000207154 21.8631V1.23815C-0.00283392 1.07504 0.0276364 0.913053 0.0897317 0.762201C0.151827 0.611349 0.244226 0.474848 0.361207 0.361149C0.475193 0.244548 0.611746 0.152401 0.762531 0.0903339C0.913315 0.0282663 1.07517 -0.0024198 1.23821 0.000148921H12.7882C13.1795 0.0106825 13.5649 0.0983585 13.9222 0.258149C14.2859 0.398996 14.6188 0.609232 14.9022 0.877149L18.9242 4.90015ZM13.2002 1.75315V6.60015H18.0472C17.9916 6.40546 17.8948 6.22503 17.7632 6.07115L13.7292 2.03715C13.5753 1.90558 13.3949 1.80871 13.2002 1.75315ZM18.1502 21.4501V8.25015H12.7882C12.6254 8.25081 12.4642 8.21924 12.3137 8.15726C12.1632 8.09528 12.0264 8.00411 11.9113 7.88902C11.7962 7.77393 11.7051 7.63719 11.6431 7.48669C11.5811 7.33619 11.5495 7.17491 11.5502 7.01215V1.65015H1.65021V21.4501H18.1502Z" fill="white"/>
<path d="M18.9242 4.90015C19.1924 5.18337 19.4027 5.51628 19.5432 5.88015C19.7021 6.23738 19.7894 6.62231 19.8002 7.01315V21.8631C19.8007 22.0258 19.7691 22.187 19.707 22.3374C19.645 22.4878 19.5538 22.6244 19.4387 22.7394C19.3236 22.8544 19.187 22.9454 19.0365 23.0074C18.8861 23.0693 18.7249 23.1008 18.5622 23.1001H1.23821C1.0751 23.1032 0.913111 23.0727 0.762259 23.0106C0.611407 22.9485 0.474906 22.8561 0.361207 22.7391C0.24473 22.6253 0.152654 22.4889 0.0905908 22.3383C0.0285273 22.1877 -0.00222516 22.026 0.000207154 21.8631V1.23815C-0.00283392 1.07504 0.0276364 0.913053 0.0897317 0.762201C0.151827 0.611349 0.244226 0.474848 0.361207 0.361149C0.475193 0.244548 0.611746 0.152401 0.762531 0.0903339C0.913315 0.0282663 1.07517 -0.0024198 1.23821 0.000148921H12.7882C13.1795 0.0106825 13.5649 0.0983585 13.9222 0.258149C14.2859 0.398996 14.6188 0.609232 14.9022 0.877149L18.9242 4.90015ZM13.2002 1.75315V6.60015H18.0472C17.9916 6.40546 17.8948 6.22503 17.7632 6.07115L13.7292 2.03715C13.5753 1.90558 13.3949 1.80871 13.2002 1.75315ZM18.1502 21.4501V8.25015H12.7882C12.6254 8.25081 12.4642 8.21924 12.3137 8.15726C12.1632 8.09528 12.0264 8.00411 11.9113 7.88902C11.7962 7.77393 11.7051 7.63719 11.6431 7.48669C11.5811 7.33619 11.5495 7.17491 11.5502 7.01215V1.65015H1.65021V21.4501H18.1502Z" stroke="white"/>
</svg>
