<svg width="31" height="27" viewBox="0 0 31 27" fill="none" xmlns="http://www.w3.org/2000/svg">
<path d="M10.985 10.9852C10.985 11.5687 10.7532 12.1283 10.3406 12.5408C9.92805 12.9534 9.36848 13.1852 8.785 13.1852C8.20152 13.1852 7.64194 12.9534 7.22936 12.5408C6.81678 12.1283 6.585 11.5687 6.585 10.9852C6.585 10.4017 6.81678 9.84216 7.22936 9.42958C7.64194 9.017 8.20152 8.78521 8.785 8.78521C9.36848 8.78521 9.92805 9.017 10.3406 9.42958C10.7532 9.84216 10.985 10.4017 10.985 10.9852ZM17.576 10.9852C17.5746 11.419 17.4449 11.8428 17.2033 12.2031C16.9617 12.5634 16.619 12.8443 16.2182 13.0104C15.8175 13.1765 15.3765 13.2203 14.9509 13.1365C14.5252 13.0527 14.1339 12.8449 13.826 12.5392C13.4144 12.1268 13.1833 11.5679 13.1833 10.9852C13.1833 10.4025 13.4144 9.84366 13.826 9.43121C14.1338 9.12562 14.5251 8.91783 14.9506 8.83397C15.3762 8.7501 15.817 8.7939 16.2178 8.95986C16.6185 9.12581 16.9613 9.40653 17.2029 9.76671C17.4446 10.1269 17.5744 10.5505 17.576 10.9842V10.9852ZM24.167 10.9852C24.1684 11.3477 24.0801 11.7049 23.9102 12.025C23.7402 12.3452 23.4938 12.6184 23.1928 12.8203C22.8917 13.0223 22.5455 13.1468 22.1848 13.1826C21.8241 13.2185 21.4601 13.1647 21.1253 13.026C20.7904 12.8874 20.4949 12.6681 20.2652 12.3877C20.0355 12.1073 19.8786 11.7745 19.8085 11.4188C19.7384 11.0632 19.7573 10.6958 19.8635 10.3492C19.9696 10.0026 20.1598 9.6876 20.417 9.43221C20.7248 9.12628 21.1161 8.91819 21.5418 8.83413C21.9676 8.75007 22.4086 8.79379 22.8096 8.95979C23.2105 9.12578 23.5534 9.40665 23.7951 9.76705C24.0368 10.1274 24.1666 10.5513 24.168 10.9852H24.167ZM15.379 2.20021C13.141 2.18137 10.9195 2.58475 8.831 3.38921C6.98396 4.06071 5.32441 5.16444 3.991 6.60821C2.86491 7.79014 2.22544 9.35293 2.2 10.9852C2.21166 12.3053 2.64004 13.588 3.424 14.6502C4.3401 15.8983 5.52186 16.9274 6.884 17.6632L8.378 18.5212L7.915 20.1692C7.64469 21.2011 7.24131 22.1934 6.715 23.1212C8.43955 22.4095 10.0347 21.4178 11.436 20.1862L12.174 19.5342L13.152 19.6342C13.8927 19.7231 14.638 19.7692 15.384 19.7722C17.6223 19.7898 19.8438 19.385 21.932 18.5792C23.779 17.9077 25.4386 16.804 26.772 15.3602C27.8996 14.1787 28.5399 12.6152 28.565 10.9822C28.539 9.34965 27.8988 7.78683 26.772 6.60522C25.4385 5.16156 23.779 4.05785 21.932 3.38621C19.8418 2.58183 17.6185 2.17944 15.379 2.20021ZM30.758 10.9892C30.7445 13.0116 30.0154 14.964 28.7 16.5002C27.1977 18.2814 25.2721 19.6567 23.1 20.5002C20.6482 21.4971 18.0226 21.9962 15.376 21.9682C14.5445 21.9664 13.7136 21.9203 12.887 21.8302C10.6262 23.8302 7.91615 25.2552 4.987 25.9842C4.34534 26.1603 3.69107 26.2866 3.03 26.3622H2.953C2.78158 26.3623 2.61637 26.298 2.49 26.1822C2.35057 26.0582 2.25454 25.8928 2.216 25.7102V25.7002C2.19834 25.669 2.18832 25.6341 2.18676 25.5983C2.1852 25.5625 2.19213 25.5268 2.207 25.4942C2.22921 25.4396 2.24075 25.3812 2.241 25.3222C2.235 25.2995 2.26067 25.2452 2.318 25.1592L2.418 25.0042L2.538 24.8582L2.676 24.7032C2.756 24.6112 2.93333 24.4139 3.208 24.1112L3.8 23.4592C3.92 23.3259 4.09733 23.0999 4.332 22.7812C4.53948 22.5035 4.72599 22.2107 4.89 21.9052C5.02733 21.6419 5.18167 21.3045 5.353 20.8932C5.5288 20.4697 5.67776 20.0355 5.799 19.5932C4.11379 18.6742 2.66082 17.3824 1.551 15.8162C0.544754 14.4061 0.00265289 12.7176 0 10.9852C0.00524708 9.47847 0.42676 8.00249 1.218 6.72021C2.05757 5.33589 3.1751 4.14073 4.5 3.21021C5.99637 2.16648 7.65366 1.37499 9.406 0.867215C11.3431 0.284233 13.3561 -0.0079518 15.379 0.000214912C17.402 -0.00907924 19.4151 0.283129 21.352 0.867215C23.1054 1.37549 24.7639 2.16693 26.262 3.21021C27.586 4.14058 28.7022 5.33583 29.54 6.72021C30.331 8.00262 30.7524 9.47852 30.758 10.9852V10.9892Z" fill="white"/>
</svg>
