<svg width="49" height="77" viewBox="0 0 49 77" fill="none" xmlns="http://www.w3.org/2000/svg">
<path d="M9.57 3.30988e-07C6.34245 -0.000421679 3.12752 0.402705 0 1.2L0 75.8C5.2901 77.1526 10.8074 77.3645 16.1857 76.4216C21.5639 75.4787 26.6801 73.4025 31.1946 70.3309C35.709 67.2594 39.5185 63.2627 42.37 58.6061C45.2216 53.9496 47.0501 48.7397 47.734 43.3225C48.418 37.9052 47.9418 32.4044 46.337 27.1852C44.7323 21.966 42.0358 17.1479 38.4264 13.0507C34.817 8.95346 30.3774 5.67085 25.4023 3.42078C20.4271 1.17071 15.0303 0.00464644 9.57 3.30988e-07V3.30988e-07Z" fill="#FED812"/>
<path d="M21.9995 24.0001C21.1003 24.0315 20.2499 24.4169 19.6337 25.0725C19.0174 25.7281 18.6852 26.6007 18.7095 27.5001C18.7659 28.495 19.1137 29.4514 19.7095 30.2501C19.8211 30.4181 19.8824 30.6144 19.8863 30.8161C19.8903 31.0177 19.8366 31.2163 19.7316 31.3884C19.6266 31.5606 19.4747 31.6993 19.2936 31.7882C19.1126 31.877 18.91 31.9124 18.7095 31.8901C16.2095 31.5601 13.7095 31.0501 13.7095 31.0501C13.5417 31.016 13.3708 30.9993 13.1995 31.0001C12.9073 31.0036 12.6187 31.0656 12.3508 31.1824C12.0828 31.2992 11.841 31.4684 11.6395 31.6801C11.2255 32.1296 10.9969 32.7191 10.9995 33.3301V39.0001C10.9859 39.2386 11.0399 39.476 11.1551 39.6852C11.2704 39.8944 11.4423 40.0669 11.6512 40.1828C11.86 40.2987 12.0973 40.3534 12.3358 40.3405C12.5743 40.3277 12.8043 40.2478 12.9995 40.1101C13.77 39.4643 14.7553 39.1323 15.7595 39.1801C16.459 39.2681 17.1139 39.5714 17.6335 40.0479C18.153 40.5245 18.5116 41.1508 18.6595 41.8401C18.7899 42.3405 18.8066 42.8637 18.7082 43.3713C18.6098 43.879 18.3988 44.3581 18.0909 44.7734C17.783 45.1888 17.3859 45.5299 16.9287 45.7716C16.4716 46.0133 15.9662 46.1495 15.4495 46.1701C14.5534 46.1265 13.6948 45.7971 12.9995 45.2301C12.803 45.0911 12.5709 45.0108 12.3304 44.9986C12.09 44.9864 11.851 45.0428 11.6414 45.1612C11.4317 45.2797 11.2601 45.4553 11.1465 45.6675C11.0328 45.8798 10.9819 46.12 10.9995 46.3601V49.1601C10.9995 51.0001 11.9995 52.0001 13.1995 52.0001H30.7995C31.0972 51.9924 31.3904 51.9259 31.6623 51.8044C31.9342 51.683 32.1794 51.509 32.3839 51.2925C32.5883 51.0759 32.7479 50.8211 32.8536 50.5427C32.9593 50.2643 33.0088 49.9678 32.9995 49.6701V33.3301C33.0022 32.7191 32.7735 32.1296 32.3595 31.6801C32.158 31.4684 31.9162 31.2992 31.6483 31.1824C31.3803 31.0656 31.0918 31.0036 30.7995 31.0001C30.6449 31.0014 30.4908 31.0181 30.3395 31.0501V31.0501C30.3395 31.0501 27.7995 31.5601 25.3395 31.8901C25.1388 31.9098 24.9366 31.8723 24.7563 31.782C24.576 31.6917 24.4249 31.5523 24.3203 31.3798C24.2158 31.2073 24.1621 31.0088 24.1655 30.8072C24.1689 30.6055 24.2292 30.409 24.3395 30.2401C25.0241 29.3627 25.3781 28.2724 25.3395 27.1601C25.2884 26.4537 25.021 25.7801 24.5737 25.2308C24.1265 24.6816 23.521 24.2833 22.8395 24.0901C22.5639 24.028 22.282 23.9978 21.9995 24.0001V24.0001Z" fill="black"/>
</svg>
