<svg width="21" height="21" viewBox="0 0 21 21" fill="none" xmlns="http://www.w3.org/2000/svg">
<path d="M14.5303 8.87932C14.5412 8.13589 14.3996 7.39811 14.1142 6.71152C13.8289 6.02494 13.4059 5.4041 12.8713 4.88733C12.3544 4.35304 11.7335 3.93028 11.0469 3.64513C10.3604 3.35998 9.62267 3.21847 8.87932 3.22933C8.13595 3.21829 7.3982 3.35972 6.71161 3.64488C6.02502 3.93005 5.40415 4.35289 4.88733 4.88733C4.35289 5.40415 3.93005 6.02502 3.64488 6.71161C3.35972 7.3982 3.21829 8.13595 3.22933 8.87932C3.21866 9.62274 3.36035 10.3605 3.64568 11.047C3.931 11.7336 4.3539 12.3544 4.88833 12.8713C5.40495 13.4058 6.02562 13.8288 6.71203 14.1141C7.39844 14.3994 8.13605 14.5411 8.87932 14.5303C9.62279 14.5413 10.3606 14.3998 11.0472 14.1145C11.7338 13.8291 12.3547 13.406 12.8713 12.8713C13.4056 12.3543 13.8284 11.7335 14.1137 11.0469C14.399 10.3604 14.5408 9.62271 14.5303 8.87932ZM20.9883 19.3733C20.9824 19.7995 20.8104 20.2066 20.509 20.508C20.2076 20.8094 19.8005 20.9814 19.3743 20.9873C19.162 20.9924 18.951 20.9523 18.7554 20.8697C18.5597 20.7871 18.3838 20.664 18.2393 20.5083L13.9133 16.1943C12.4399 17.2271 10.6806 17.7739 8.88132 17.7583C7.6957 17.7619 6.52179 17.5237 5.43133 17.0583C4.36955 16.6215 3.40482 15.9787 2.59281 15.167C1.7808 14.3554 1.13759 13.3909 0.700325 12.3293C0.238155 11.2378 0 10.0646 0 8.87932C0 7.69403 0.238155 6.52081 0.700325 5.42933C1.13748 4.36783 1.78053 3.40342 2.59236 2.59176C3.4042 1.7801 4.36874 1.13725 5.43033 0.700325C6.52181 0.238155 7.69503 0 8.88033 0C10.0656 0 11.2388 0.238155 12.3303 0.700325C13.392 1.13737 14.3566 1.78037 15.1684 2.59221C15.9803 3.40405 16.6233 4.36865 17.0603 5.43033C17.526 6.5207 17.7642 7.69467 17.7603 8.88033C17.776 10.6796 17.2292 12.4389 16.1963 13.9123L20.5223 18.2383C20.6734 18.3857 20.7927 18.5624 20.8728 18.7576C20.953 18.9528 20.9923 19.1623 20.9883 19.3733Z" fill="white"/>
</svg>
