<svg width="48" height="77" viewBox="0 0 48 77" fill="none" xmlns="http://www.w3.org/2000/svg">
<path d="M9.5 77C30.763 77 48 59.763 48 38.5C48 17.237 30.763 0 9.5 0C-11.763 0 -29 17.237 -29 38.5C-29 59.763 -11.763 77 9.5 77Z" fill="#FED812"/>
<path d="M31.8327 38.0522L32.0538 41.6463C32.0869 42.1695 31.7507 42.6547 31.0452 43.1019C30.1501 43.621 29.1717 43.9808 28.1535 44.1654C26.846 44.4354 25.5138 44.5668 24.1788 44.5575C22.8438 44.5668 21.5115 44.4354 20.2041 44.1654C19.1859 43.9808 18.2075 43.621 17.3123 43.1019C16.6069 42.6551 16.2707 42.1699 16.3037 41.6463L16.5249 38.0522L23.5884 40.1103C23.9751 40.2161 24.3831 40.2161 24.7699 40.1103L31.8327 38.0522ZM38.3546 34.3664C38.3575 34.447 38.3323 34.5262 38.2835 34.5904C38.2346 34.6547 38.1651 34.7 38.0866 34.7189L24.3007 38.7224C24.2195 38.7379 24.136 38.7379 24.0548 38.7224L16.0337 36.3802C15.6292 36.7119 15.3271 37.1516 15.1625 37.6481C14.9197 38.2993 14.7786 38.9839 14.7443 39.678C14.9809 39.7858 15.1805 39.9609 15.3182 40.1813C15.456 40.4018 15.5258 40.6579 15.519 40.9178C15.5236 41.1667 15.4593 41.412 15.3334 41.6268C15.2075 41.8415 15.0247 42.0173 14.8053 42.1348L15.519 47.0592C15.5272 47.1111 15.5225 47.1642 15.5053 47.2139C15.4881 47.2636 15.459 47.3082 15.4205 47.344C15.3835 47.3854 15.3379 47.4182 15.2868 47.4398C15.2357 47.4615 15.1804 47.4716 15.1249 47.4693H12.7586C12.7031 47.4716 12.6479 47.4615 12.5968 47.4398C12.5456 47.4182 12.5 47.3854 12.4631 47.344C12.4245 47.3082 12.3954 47.2636 12.3782 47.2139C12.361 47.1642 12.3563 47.1111 12.3645 47.0592L13.0783 42.1348C12.8546 42.0096 12.6697 41.8253 12.5439 41.6019C12.4182 41.3785 12.3564 41.1249 12.3653 40.8687C12.3742 40.6125 12.4536 40.3637 12.5946 40.1497C12.7356 39.9356 12.9329 39.7646 13.1647 39.6552C13.1802 38.3114 13.6006 37.0035 14.371 35.9024L10.2703 34.7195C10.1928 34.6988 10.1242 34.653 10.0754 34.5893C10.0265 34.5257 10 34.4476 10 34.3674C10 34.2871 10.0265 34.2091 10.0754 34.1454C10.1242 34.0817 10.1928 34.0359 10.2703 34.0152L24.0555 30.0117C24.1367 29.9961 24.2202 29.9961 24.3014 30.0117L38.0819 34.0152C38.1604 34.034 38.2299 34.0794 38.2788 34.1436C38.3277 34.2079 38.3528 34.287 38.35 34.3677L38.3546 34.3664Z" fill="black"/>
</svg>
