<svg width="19" height="22" viewBox="0 0 19 22" fill="none" xmlns="http://www.w3.org/2000/svg">
<path d="M18.0012 17.8727C18.0247 18.8251 17.7137 19.7557 17.1222 20.5027C16.8802 20.8399 16.5619 21.1152 16.1933 21.306C15.8247 21.4968 15.4162 21.5978 15.0012 21.6007H2.99616C2.58176 21.5968 2.17412 21.4952 1.80642 21.3041C1.43872 21.1129 1.12136 20.8376 0.880156 20.5007C0.289457 19.7541 -0.0214983 18.8244 0.00115589 17.8727C-0.00126943 17.1187 0.0384592 16.3652 0.120156 15.6157C0.203203 14.8911 0.351471 14.1755 0.563156 13.4777C0.748565 12.8277 1.02569 12.2074 1.38616 11.6357C1.72312 11.1212 2.17587 10.6927 2.70816 10.3847C3.28339 10.0541 3.93788 9.88681 4.60116 9.90065C5.17595 10.481 5.86184 10.9395 6.61784 11.2488C7.37384 11.558 8.18442 11.7117 9.00116 11.7007C9.81789 11.7117 10.6285 11.558 11.3845 11.2488C12.1405 10.9395 12.8264 10.481 13.4012 9.90065C14.0638 9.88763 14.7176 10.0553 15.2922 10.3857C15.8244 10.6937 16.2772 11.1222 16.6142 11.6367C16.9746 12.2084 17.2517 12.8287 17.4372 13.4787C17.6488 14.1765 17.7971 14.8921 17.8802 15.6167C17.9625 16.3658 18.0029 17.119 18.0012 17.8727ZM14.4012 5.40065C14.4123 6.11122 14.2776 6.81653 14.0055 7.47303C13.7335 8.12953 13.3297 8.72329 12.8192 9.21765C12.3246 9.72824 11.7307 10.1321 11.074 10.4044C10.4174 10.6766 9.71192 10.8115 9.00116 10.8007C8.29035 10.8118 7.58481 10.6771 6.92812 10.4048C6.27144 10.1325 5.67755 9.72848 5.18316 9.21765C4.67263 8.72329 4.26886 8.12953 3.99677 7.47303C3.72467 6.81653 3.59003 6.11122 3.60116 5.40065C3.58989 4.68992 3.72447 3.98442 3.99657 3.32774C4.26867 2.67106 4.67251 2.07713 5.18316 1.58265C5.67764 1.07201 6.27156 0.668162 6.92824 0.396063C7.58493 0.123965 8.29042 -0.0106094 9.00116 0.000652765C9.71168 -0.0101759 10.4169 0.1246 11.0734 0.396677C11.7298 0.668754 12.3236 1.07237 12.8182 1.58265C13.329 2.07705 13.733 2.67093 14.0053 3.32762C14.2776 3.98431 14.4123 4.68985 14.4012 5.40065Z" fill="white"/>
</svg>
