<svg width="88" height="75" viewBox="0 0 88 75" fill="none" xmlns="http://www.w3.org/2000/svg">
<path d="M40.6161 10.2284V47.7258C40.6269 51.3607 39.8967 54.9591 38.471 58.2984C35.7507 64.8731 30.5619 70.0994 24.0342 72.8393C20.7186 74.2743 17.1461 75.0097 13.5373 74.9999H10.1516C9.70713 75.004 9.26654 74.9163 8.85701 74.7423C8.44748 74.5682 8.07771 74.3115 7.77049 73.988C7.44926 73.6785 7.19439 73.3061 7.0216 72.8936C6.84882 72.4811 6.76178 72.0374 6.76585 71.5897V64.773C6.76178 64.3253 6.84882 63.8815 7.0216 63.4691C7.19439 63.0566 7.44926 62.6841 7.77049 62.3747C8.07771 62.0512 8.44748 61.7945 8.85701 61.6204C9.26654 61.4464 9.70713 61.3587 10.1516 61.3628H13.5373C15.3191 61.3905 17.0877 61.0501 18.7338 60.3626C20.3799 59.6751 21.8686 58.6552 23.1082 57.3657C24.3885 56.1172 25.4011 54.6177 26.0836 52.9597C26.7662 51.3017 27.1042 49.5204 27.0767 47.7258V46.0225C27.0791 45.3503 26.9494 44.6843 26.6951 44.0629C26.4408 43.4414 26.0669 42.8767 25.595 42.4014C25.1231 41.9261 24.5625 41.5496 23.9455 41.2934C23.3285 41.0373 22.6673 40.9067 21.9999 40.9091H10.1552C8.81781 40.9328 7.48982 40.6802 6.2532 40.1667C5.01659 39.6533 3.89761 38.8899 2.96539 37.9238C2.00688 36.9843 1.24945 35.8572 0.739731 34.6118C0.230008 33.3664 -0.0212181 32.0291 0.00152171 30.6822V10.2284C-0.0220653 8.88141 0.228774 7.54384 0.738546 6.2983C1.24832 5.05277 2.0062 3.92573 2.96539 2.98677C3.89826 2.02153 5.01735 1.25875 6.25381 0.745364C7.49028 0.231977 8.81796 -0.0211582 10.1552 0.00153269H30.4625C31.7998 -0.0222244 33.1278 0.230424 34.3644 0.743873C35.601 1.25732 36.72 2.02067 37.6522 2.98677C38.6106 3.92637 39.3679 5.05354 39.8776 6.29892C40.3873 7.5443 40.6386 8.88156 40.6161 10.2284ZM87.9986 10.2284V47.7258C88.0094 51.3607 87.2792 54.9591 85.8535 58.2984C83.1332 64.8731 77.9444 70.0994 71.4167 72.8393C68.1011 74.2743 64.5286 75.0097 60.9198 74.9999H57.5341C56.6399 74.9877 55.7857 74.6246 55.1533 73.9877C54.5209 73.3507 54.1604 72.4904 54.1484 71.5897V64.773C54.1604 63.8723 54.5209 63.012 55.1533 62.375C55.7857 61.7381 56.6399 61.3749 57.5341 61.3628H60.9198C64.5101 61.3609 67.9528 59.9235 70.4915 57.3665C73.0302 54.8095 74.4573 51.342 74.4592 47.7258V46.0225C74.4616 45.3503 74.3319 44.6843 74.0776 44.0629C73.8233 43.4414 73.4494 42.8767 72.9775 42.4014C72.5056 41.9261 71.945 41.5496 71.328 41.2934C70.711 41.0373 70.0498 40.9067 69.3824 40.9091H57.5377C56.2028 40.9143 54.8801 40.6533 53.6459 40.1413C52.4116 39.6292 51.2902 38.8761 50.3464 37.9254C49.4025 36.9747 48.6547 35.8452 48.1463 34.602C47.6379 33.3589 47.3788 32.0267 47.384 30.6822V10.2284C47.3604 8.88141 47.6113 7.54384 48.121 6.2983C48.6308 5.05277 49.3887 3.92573 50.3479 2.98677C51.2808 2.02153 52.3998 1.25875 53.6363 0.745364C54.8728 0.231977 56.2005 -0.0211582 57.5377 0.00153269H77.845C79.1823 -0.0222244 80.5103 0.230424 81.7469 0.743873C82.9835 1.25732 84.1025 2.02067 85.0347 2.98677C85.9931 3.92637 86.7504 5.05354 87.2601 6.29892C87.7698 7.5443 88.0211 8.88156 87.9986 10.2284V10.2284Z" fill="black"/>
</svg>
