<svg width="90" height="76" viewBox="0 0 90 76" fill="none" xmlns="http://www.w3.org/2000/svg">
<path d="M41.5387 44.9075V65.6336C41.5441 66.9962 41.2792 68.3465 40.7592 69.6065C40.2392 70.8664 39.4744 72.0112 38.5089 72.9748C37.5434 73.9383 36.3962 74.7016 35.1337 75.2205C33.8711 75.7394 32.5181 76.0038 31.1526 75.9983H10.3875C9.01937 76.0232 7.66071 75.7675 6.39558 75.2473C5.13046 74.727 3.98579 73.9531 3.03243 72.9736C2.0522 72.0212 1.27762 70.8787 0.756365 69.6164C0.235109 68.3541 -0.0217996 66.9987 0.00144795 65.6336V27.6364C-0.0107821 23.9537 0.734465 20.3077 2.19107 16.924C4.97207 10.2599 10.2792 4.96244 16.9563 2.18557C20.3486 0.733265 24.0029 -0.0103896 27.6941 0.000433686H31.1423C31.5972 -0.00271512 32.048 0.0872719 32.4667 0.264834C32.8854 0.442397 33.2632 0.703762 33.5767 1.03278C33.9064 1.34565 34.1683 1.72266 34.3463 2.14052C34.5242 2.55839 34.6144 3.00822 34.6112 3.46224V10.3652C34.6144 10.8192 34.5242 11.269 34.3463 11.6869C34.1683 12.1048 33.9064 12.4818 33.5767 12.7946C33.2632 13.1237 32.8854 13.385 32.4667 13.5626C32.048 13.7402 31.5972 13.8301 31.1423 13.827H27.6941C25.8724 13.7976 24.064 14.1409 22.3803 14.8357C20.6967 15.5305 19.1734 16.5621 17.9046 17.8669C16.5948 19.1327 15.559 20.6529 14.8609 22.3338C14.1629 24.0147 13.8175 25.8205 13.846 27.6398V29.3604C13.8433 30.0417 13.9758 30.7168 14.2358 31.3468C14.4958 31.9768 14.8782 32.5492 15.3609 33.031C15.8437 33.5127 16.4173 33.8944 17.0485 34.1538C17.6798 34.4133 18.3563 34.5455 19.0391 34.5428H31.1526C32.5181 34.5373 33.8711 34.8017 35.1337 35.3206C36.3962 35.8395 37.5434 36.6028 38.5089 37.5663C39.4744 38.5299 40.2392 39.6747 40.7592 40.9346C41.2792 42.1946 41.5441 43.5449 41.5387 44.9075V44.9075ZM89.9999 44.9075V65.6336C90.0054 66.9962 89.7405 68.3465 89.2205 69.6065C88.7005 70.8664 87.9356 72.0112 86.9701 72.9748C86.0046 73.9383 84.8575 74.7016 83.5949 75.2205C82.3323 75.7394 80.9793 76.0038 79.6139 75.9983H58.8453C57.4798 76.0038 56.1268 75.7394 54.8642 75.2205C53.6017 74.7016 52.4546 73.9383 51.489 72.9748C50.5235 72.0112 49.7587 70.8664 49.2387 69.6065C48.7187 68.3465 48.4538 66.9962 48.4592 65.6336V27.6364C48.447 23.9537 49.1923 20.3077 50.6489 16.924C53.4323 10.2603 58.7402 4.96327 65.4176 2.18557C68.8097 0.732985 72.4641 -0.0106815 76.1553 0.000433686H79.6035C80.0637 -0.00698827 80.5204 0.0809247 80.9447 0.258617C81.3691 0.436309 81.7519 0.699916 82.069 1.03278C82.3987 1.34565 82.6606 1.72266 82.8385 2.14052C83.0165 2.55839 83.1066 3.00822 83.1035 3.46224V10.3652C83.1066 10.8192 83.0165 11.269 82.8385 11.6869C82.6606 12.1048 82.3987 12.4818 82.069 12.7946C81.7555 13.1237 81.3777 13.385 80.959 13.5626C80.5403 13.7402 80.0895 13.8301 79.6346 13.827H76.1864C74.3639 13.799 72.555 14.1439 70.8713 14.8405C69.1876 15.5371 67.6648 16.5706 66.3969 17.8772C65.0875 19.1426 64.0519 20.6623 63.3539 22.3425C62.6558 24.0228 62.3102 25.828 62.3383 27.6467V29.3673C62.3356 30.0486 62.468 30.7237 62.728 31.3537C62.988 31.9837 63.3705 32.5561 63.8532 33.0378C64.336 33.5196 64.9095 33.9012 65.5408 34.1607C66.1721 34.4202 66.8486 34.5524 67.5313 34.5496H79.6449C81.0075 34.5483 82.3569 34.8155 83.6156 35.3361C84.8743 35.8567 86.0176 36.6202 86.9798 37.583C87.942 38.5458 88.7041 39.6888 89.2224 40.9463C89.7407 42.2039 90.0049 43.5512 89.9999 44.911V44.9075Z" fill="black"/>
</svg>
